<?xml version="1.0" encoding="UTF-8" standalone="no"?>
<!DOCTYPE svg  PUBLIC '-//W3C//DTD SVG 1.1//EN'  'http://www.w3.org/Graphics/SVG/1.1/DTD/svg11.dtd'>
<svg xmlns="http://www.w3.org/2000/svg" version="1.1">
<defs>
<font id="OxfamGlobalHeadline-Regular" horiz-adv-x="724">
<font-face ascent="800" units-per-em="1000" underline-thickness="50" bbox="-160 -235 1063 989" cap-height="698" underline-position="-150" unicode-range="U+0020-2074" font-weight="400" descent="-200" panose-1="2 11 6 4 3 2 1 1 2 1" x-height="694" font-family="Oxfam Global Headline"/>
<missing-glyph/>
<glyph glyph-name="space" horiz-adv-x="250" unicode=" "/>
<glyph glyph-name="exclam" horiz-adv-x="292" d="M234 -14l-176 2v165l180 -8zM238 211l-184 -6l6 515l192 6z" unicode="!"/>
<glyph glyph-name="quotedbl" horiz-adv-x="508" d="M40 708l180 10l10 -287h-180zM298 718l180 10l-10 -297h-170v287z" unicode='&quot;'/>
<glyph glyph-name="numbersign" horiz-adv-x="681" d="M399 150h-101l-2 -126l-155 10v116h-91l20 165h71v82h-91l20 175h71v103l165 -10l-2 -93h102l2 103h145l-2 -103h80l-20 -175h-62l-2 -82h84l-20 -165h-66l-2 -116l-145 10zM300 315h102l1 82h-101z" unicode="#"/>
<glyph glyph-name="dollar" horiz-adv-x="521" d="M195 -33q-52 5 -104.5 27t-89.5 72l104 118q11 -14 28 -24t31 -10q22 0 38 14t16 40q0 17 -11 30.5t-27 26.5t-35.5 28.5t-35.5 38.5t-27 55t-11 79q0 21 8 45.5t25 48.5t42.5 44.5t61.5 32.5l-2 123l152 -8v-104q35 -6 67.5 -19t54.5 -29l-66 -145q-9 7 -19 11.5 t-24 4.5q-26 0 -42.5 -15t-16.5 -41q0 -16 11.5 -29t28.5 -26.5t36.5 -29.5t36.5 -38t28.5 -51.5t11.5 -70.5q0 -34 -10 -61.5t-27 -49t-39 -37t-45 -26.5l3 -132l-152 8v99z" unicode="$"/>
<glyph glyph-name="percent" horiz-adv-x="938" d="M50 535q0 41 17 80l49 65q22 18 49.5 28.5t62.5 10.5q37 0 69 -13t56 -37t38 -58t14 -76q0 -47 -16.5 -81.5t-42 -57.5t-57 -34t-61.5 -11q-37 0 -69.5 13t-56.5 37t-38 58t-14 76zM179 536q0 -26 15 -38.5t34 -12.5q18 0 33 12.5t15 38.5q0 25 -15 37.5t-33 12.5 q-16 0 -29 -10l-14 -16q-6 -11 -6 -24zM600 737l139 -69l-400 -700l-139 69zM533 168q0 38 14.5 74.5t43.5 63.5l90 44q4 2 13 2h17q37 0 69 -13t56 -37t38 -58t14 -76q0 -34 -8.5 -61.5t-23.5 -48.5l-47 -45q-23 -15 -48 -22t-50 -7q-37 0 -69.5 13t-56.5 37t-38 58t-14 76 z" unicode="%"/>
<glyph glyph-name="ampersand" horiz-adv-x="654" d="M437 526q0 -60 -30 -107q43 -32 67 -82l69 67l109 -110l-107 -104l107 -103l-109 -110l-101 96q-35 -42 -85 -61.5t-98 -19.5q-50 0 -94 17t-76.5 48t-51 75t-18.5 98q0 53 23 104l52 65q-20 23 -32 54.5t-12 72.5q0 44 15 79.5t41 61t61 39t75 13.5q38 0 69 -11t54 -30 l53 -68q19 -38 19 -84zM192 231q0 -33 20.5 -49.5t46.5 -16.5q25 0 45 16.5t20 49.5q0 32 -20 48.5t-45 16.5q-21 0 -40 -13l-17 -21q-10 -15 -10 -31zM292 527q0 11 -7 22l-13 16q-6 4 -13.5 7t-16.5 3q-17 0 -32 -12.5t-15 -35.5q0 -24 15 -36t32 -12q20 0 35 12t15 36z " unicode="&amp;"/>
<glyph glyph-name="quotesingle" horiz-adv-x="265" d="M40 728l185 -10l-10 -297l-175 10v297z" unicode="&apos;"/>
<glyph glyph-name="parenleft" horiz-adv-x="438" d="M407 586q-39 0 -74 -14t-61.5 -42.5t-42.5 -71t-16 -98.5q0 -47 14 -90t40 -75t63.5 -51t85.5 -19l12 -173q-88 0 -161.5 35t-126 92.5t-81.5 131t-29 150.5q0 80 22.5 145t62.5 114l95 83q46 28 97 42t105 14z" unicode="("/>
<glyph glyph-name="parenright" horiz-adv-x="438" d="M31 125q39 0 74 14t61.5 42.5t42.5 71t16 98.5q0 35 -8 67t-22 60l-46 61q-25 22 -57 34.5t-70 12.5l-12 173q88 0 161.5 -35t126 -92.5t81.5 -131t29 -150.5q0 -95 -32.5 -169t-86 -125t-122 -77.5t-141.5 -26.5z" unicode=")"/>
<glyph glyph-name="asterisk" horiz-adv-x="504" d="M336 734l-14 -104l115 17l33 -116l-91 -32l57 -97l-126 -86l-63 86l-84 -89l-106 80l78 99l-111 39l43 136l95 -29l-8 96h182z" unicode="*"/>
<glyph glyph-name="plus" horiz-adv-x="564" d="M40 431h158v158l169 -10v-143l147 -5l-10 -150h-137v-167l-169 10v148l-148 9z" unicode="+"/>
<glyph glyph-name="comma" horiz-adv-x="255" d="M187 -136l-144 10l3 275l198 -10z" unicode=","/>
<glyph glyph-name="hyphen" horiz-adv-x="494" d="M52 464l402 -3l-10 -190l-394 -10z" unicode="-"/>
<glyph glyph-name="period" horiz-adv-x="255" d="M218 -18l-183 -3l-2 177h193z" unicode="."/>
<glyph glyph-name="slash" horiz-adv-x="583" d="M380 781l203 -93l-380 -756l-203 93z" unicode="/"/>
<glyph glyph-name="zero" horiz-adv-x="743" d="M122 608q54 55 116 79.5t126 24.5q66 0 125.5 -25t106 -69t77 -103.5t38.5 -128.5l-1 -83q-10 -57 -36 -108.5t-65 -92t-88.5 -67.5t-106.5 -34h-90q-54 6 -102 31t-86 63.5t-65 87t-39 102.5v152q13 46 36 92.5t54 78.5zM494 347q0 31 -11 56t-29 43t-41.5 28t-47.5 10 q-37 0 -67 -20l-46 -48q-18 -33 -18 -70q0 -29 10.5 -54t28.5 -43.5t42 -29t50 -10.5q27 0 50.5 11t41 30t27.5 44t10 53z" unicode="0"/>
<glyph glyph-name="one" horiz-adv-x="464" d="M159 5l7 466l-124 -76l-10 187l184 132l168 -4v-705h-225z" unicode="1"/>
<glyph glyph-name="two" horiz-adv-x="578" d="M538 484q0 -35 -6 -59t-8 -28q-7 -19 -20 -40t-26.5 -39t-23.5 -30t-11 -13q-11 -9 -24 -20t-25 -22t-22 -20.5t-16 -15.5h165l4 -197h-477l-3 171q35 30 69 53.5t67 52.5q22 19 41.5 37t34.5 32.5t24 23.5l11 11q17 20 29.5 46t12.5 56q0 17 -6 27t-14 18 q-14 13 -31.5 16t-28.5 2q-17 -4 -33 -13q-14 -8 -29 -22t-27 -37l-150 84q25 51 62.5 87.5t91.5 58.5q23 8 44.5 11t43.5 3q31 0 66 -6.5t65 -15.5q39 -18 60.5 -37t33.5 -33q17 -20 31.5 -45.5t23.5 -57.5q2 -9 1.5 -19t-0.5 -20z" unicode="2"/>
<glyph glyph-name="three" horiz-adv-x="604" d="M499 363q12 -7 24.5 -17.5t23 -25t17 -33.5t6.5 -43q0 -38 -9 -68.5t-22.5 -53.5t-28.5 -38.5t-28 -24.5q-25 -21 -54 -34t-57.5 -20t-54 -9.5t-44.5 -2.5q-35 0 -68.5 11t-61.5 26t-48 31t-28 27q-15 20 -27 37.5t-24 36.5l169 82q6 -11 14.5 -20.5t18.5 -17.5 q12 -9 35.5 -18t38.5 -9q16 0 29.5 6t23 15t14.5 20t5 21q0 20 -12.5 39t-45.5 21l-52 3l-3 123l44 2q32 5 48 16.5t19 34.5q-2 31 -19 47t-34 21q-6 2 -13 2h-15q-15 -2 -34 -11.5t-33 -20.5q-15 -14 -28 -38l-155 91l11 22q12 19 31 41.5t48 41.5t70.5 32t98.5 13 q12 0 30.5 -2.5t38 -7t37.5 -10t31 -12.5q42 -22 77.5 -62.5t49.5 -109.5v-13q0 -17 -2.5 -35.5t-8.5 -37.5t-16.5 -36.5t-26.5 -31.5z" unicode="3"/>
<glyph glyph-name="four" horiz-adv-x="661" d="M531 328l96 -2v-178l-96 -4l2 -140h-190l-2 131l-286 6l-18 185l278 390l210 -2z" unicode="4"/>
<glyph glyph-name="five" horiz-adv-x="567" d="M537 210q0 -36 -12.5 -73t-35.5 -60l-36 -36q-35 -28 -84 -47.5t-108 -19.5q-33 0 -63.5 8.5t-56.5 22.5q-25 13 -43.5 28t-33 32.5t-26 36t-22.5 38.5l144 82q24 -41 65 -60l27 -4q7 0 19 1t24 6q14 6 25 21.5t11 35.5t-6 37q-5 13 -19 24t-23 15q-18 8 -46 12t-67 4 h-96v379h437v-174h-230l-1 -71q49 -2 89 -9l48 -15q14 -6 32 -20.5t29 -24.5q19 -17 28.5 -36.5t20.5 -44.5q5 -25 7.5 -46.5t2.5 -41.5z" unicode="5"/>
<glyph glyph-name="six" horiz-adv-x="584" d="M547 324q8 -24 12 -46t4 -44q0 -18 -6.5 -46t-14.5 -48q-17 -41 -42 -70l-45 -41q-32 -22 -67.5 -33.5t-76.5 -11.5q-51 0 -94.5 16t-75.5 44l-47 51q-11 16 -18 27.5t-12 23t-9 26.5t-9 38q-5 22 -7.5 46.5t-2.5 44.5q0 42 13 88t33 90.5t44 84.5t46 71q27 38 57 67 t59 52l158 -91q-30 -21 -54 -46t-36 -43q-31 -33 -44 -53t-18 -34q4 0 17.5 -0.5t27.5 -2.5q13 -3 31 -9.5t38 -15.5t39.5 -20.5t34.5 -24.5zM219 240q0 -14 5 -27.5t15 -25t24.5 -18.5t33.5 -7q11 0 20 3t20 8l27 29q12 16 12 39t-14.5 42t-34.5 30q-15 5 -30 5 q-35 0 -56.5 -23t-21.5 -55z" unicode="6"/>
<glyph glyph-name="seven" horiz-adv-x="600" d="M51 691l494 16v-200l-221 -529l-212 67l202 445l-251 -3z" unicode="7"/>
<glyph glyph-name="eight" horiz-adv-x="614" d="M334 725q54 0 98 -19t74.5 -50t47 -70t16.5 -79q0 -36 -14 -76.5t-43 -73.5l-4 -3q29 -31 45 -69.5t16 -76.5q0 -36 -14 -76t-43 -74l-43 -40q-67 -44 -152 -44q-42 0 -84 9.5t-77 34.5l-48 46q-28 32 -39.5 72.5t-11.5 78.5q0 33 17 62t35 58l16 11l-17 16 q-28 32 -39.5 73t-11.5 80q0 33 17 61t35 57l84 62q13 7 31.5 13t38 9.5t38 5.5t32.5 2zM241 209q0 -30 22 -49t48 -19q16 0 36 10l24 24q10 14 10 35q0 29 -21 48.5t-49 19.5t-49 -20.5t-21 -48.5zM374 499q0 28 -20 45t-43 17q-16 0 -32 -8l-22 -22q-9 -15 -9 -32 q0 -25 19 -42.5t44 -17.5t44 18t19 42z" unicode="8"/>
<glyph glyph-name="nine" horiz-adv-x="574" d="M539 480v-28.5t-1 -26.5q-3 -33 -8.5 -59.5t-11.5 -45.5t-10.5 -31t-5.5 -16q-3 -10 -10 -24.5t-14.5 -29t-14.5 -27t-10 -18.5q-14 -23 -24.5 -40t-21.5 -33q-5 -7 -18 -23t-29.5 -34.5t-33.5 -36t-29 -26.5l-168 74q30 27 51.5 52t38.5 48q17 17 33 42.5t24 45.5h-20 q-15 2 -29.5 6t-31.5 8q-14 3 -26.5 9.5t-26.5 14.5q-32 18 -54.5 42t-37.5 51.5t-22 56.5t-7 57q0 29 6 56.5t21 58.5l74 93q36 26 73 37.5t79 11.5q38 0 80 -12t82 -42l48 -49q29 -36 42 -76.5t13 -85.5zM361 491q0 33 -23.5 55.5t-53.5 22.5q-14 0 -26.5 -4t-29.5 -18 l-18 -25q-5 -15 -5 -30q0 -10 2.5 -20t8.5 -19l26 -28q20 -11 42 -11q16 0 30 6.5t24.5 17t16.5 24.5t6 29z" unicode="9"/>
<glyph glyph-name="colon" horiz-adv-x="255" d="M218 -18l-183 -3l-2 177h193zM218 335l-183 -3l-2 177h193z" unicode=":"/>
<glyph glyph-name="semicolon" horiz-adv-x="255" d="M228 335l-183 -3l-2 177h193zM187 -136l-144 10l3 275l198 -10z" unicode=";"/>
<glyph glyph-name="less" horiz-adv-x="496" d="M60 442l328 180l61 -172l-231 -94l242 -113l-72 -152l-338 190z" unicode="&lt;"/>
<glyph glyph-name="equal" horiz-adv-x="544" d="M50 322l435 3l12 -153l-447 -3v153zM53 542h444l-12 -161l-435 10z" unicode="="/>
<glyph glyph-name="greater" horiz-adv-x="496" d="M446 281l-330 -190l-79 152l220 106l-220 121l71 152l343 -180z" unicode="&gt;"/>
<glyph glyph-name="question" horiz-adv-x="545" d="M378 -10l-195 -4l5 162l190 7v-165zM367 184l-163 84l99 152l8 14q5 7 9 19t4 21q0 25 -19 43t-44 18q-27 -1 -45.5 -17.5t-22.5 -54.5l-179 1q-1 69 23 119t63 81.5t90 46.5t104 15q33 0 62.5 -8.5t55.5 -23.5l81 -80q31 -51 31 -112q0 -38 -12 -78.5t-34 -72.5z" unicode="?"/>
<glyph glyph-name="at" horiz-adv-x="895" d="M600 -33q-19 -5 -35 -8t-34 -5t-39 -2.5t-49 -0.5q-90 0 -161 27.5t-119.5 76.5t-74.5 116t-26 147q0 87 30 162.5t85.5 131.5t134 88t175.5 32q80 0 144 -24.5t109 -65.5t69 -96t24 -116q0 -52 -16 -97t-50 -78t-87.5 -51.5t-127.5 -18.5h-53v42q-11 -13 -28 -21t-43 -8 q-55 0 -92.5 37t-37.5 112q0 30 9 56t25 45.5t37.5 30.5t47.5 11t44.5 -6t35.5 -23v42h97v-184q41 5 65 30t24 82q0 39 -16 68.5t-44.5 50t-68 30.5t-85.5 10q-63 0 -109.5 -22.5t-78 -59t-47 -84t-15.5 -96.5q0 -56 20 -96.5t54 -67t78 -39t91 -12.5q33 0 64 2t63 10z" unicode="@"/>
<glyph glyph-name="A" d="M474 131h-218l-43 -138l-208 3l232 704h277l207 -700l-209 -2z" unicode="A"/>
<glyph glyph-name="B" horiz-adv-x="595" d="M484 371q32 -29 52.5 -68t20.5 -84t-17 -85t-46 -70t-69 -47.5t-85 -17.5l-277 3l19 710l258 -4q44 -1 81.5 -16.5t65.5 -42.5t43.5 -62.5t15.5 -76.5q0 -42 -16 -79t-46 -60z" unicode="B"/>
<glyph glyph-name="C" horiz-adv-x="680" d="M663 102l-40 -40q-49 -34 -104 -51t-112 -17q-51 0 -101 14t-96 42l-119 115q-30 47 -45.5 99t-15.5 106q0 34 8 74.5t26 81t46 78t68 66.5t92.5 46.5t119.5 17.5q66 0 128 -22.5t116 -67.5l-131 -203q-20 26 -48.5 39.5t-59.5 13.5q-28 0 -53.5 -11t-44.5 -30 t-30.5 -44.5t-11.5 -53.5q0 -29 11.5 -54t30.5 -44t44.5 -30t53.5 -11q33 0 63.5 15.5t50.5 44.5z" unicode="C"/>
<glyph glyph-name="D" horiz-adv-x="662" d="M643 351q0 -107 -58 -200l-114 -114q-44 -26 -92 -38.5t-97 -12.5h-226l20 729h203q75 0 141.5 -28.5t116 -78t78 -116t28.5 -141.5zM281 218q28 0 52 10.5t42 28.5t28.5 42t10.5 52q0 27 -10.5 51t-28.5 42t-42.5 29t-51.5 11v-266z" unicode="D"/>
<glyph glyph-name="E" horiz-adv-x="580" d="M76 -15l-2 706l423 8l4 -171l-200 -4l-2 -100l210 -1v-184h-210v-90l208 6l4 -160z" unicode="E"/>
<glyph glyph-name="F" horiz-adv-x="569" d="M308 550v-155h213v-158h-213v-230h-226l-18 721l464 -13l-5 -171z" unicode="F"/>
<glyph glyph-name="G" horiz-adv-x="825" d="M795 348q-2 -59 -22 -110.5t-58 -111.5l-63 -63q-48 -35 -105.5 -52.5t-117.5 -17.5q-63 0 -123 20t-111 60l-71 71q-39 48 -59.5 109.5t-20.5 124.5q0 74 28 142t77 119.5t116 82.5t146 31q90 0 162 -34q1 0 13 -5t29 -14t36 -22.5t34 -30.5l-137 -152q-6 6 -18.5 11.5 t-27.5 9t-31 6t-30 2.5q-29 0 -58.5 -11t-53.5 -31.5t-39.5 -50.5t-15.5 -68q0 -42 25 -81t79 -61q27 -11 53 -11q25 0 53 5.5t51 18.5q11 5 19.5 13t13.5 15q3 4 5.5 8t4.5 9l-129 17v139h327z" unicode="G"/>
<glyph glyph-name="H" horiz-adv-x="769" d="M699 724v-728h-210v224h-230v-224h-189v724h189v-227h230v231h210z" unicode="H"/>
<glyph glyph-name="I" horiz-adv-x="380" d="M70 698h240v-715h-240v715z" unicode="I"/>
<glyph glyph-name="J" horiz-adv-x="596" d="M539 236q0 -79 -43 -148l-84 -84q-32 -19 -68 -28.5t-72 -9.5q-55 0 -103.5 19.5t-85 52.5t-57.5 78t-21 96v14t1 20l198 -3q0 -30 15.5 -44t36.5 -14t37 15.5t16 38.5v463h230v-466z" unicode="J"/>
<glyph glyph-name="K" horiz-adv-x="688" d="M502 -31l-220 239v-218h-212v729h212v-228l211 214l155 -122l-224 -232l249 -279z" unicode="K"/>
<glyph glyph-name="L" horiz-adv-x="542" d="M527 -5l-453 -13l-4 733h229v-527l223 6z" unicode="L"/>
<glyph glyph-name="M" horiz-adv-x="1002" d="M732 3l-42 498l-108 -511h-171l-112 524l-23 -528l-208 3l31 717l333 -2l65 -281l68 275l309 6l75 -699z" unicode="M"/>
<glyph glyph-name="N" horiz-adv-x="791" d="M714 699l-9 -692l-287 -7l-182 407v-411h-177v713h223l217 -481l2 467z" unicode="N"/>
<glyph glyph-name="O" horiz-adv-x="799" d="M392 746q86 0 155.5 -32.5t118.5 -86t75.5 -121t26.5 -136.5q0 -63 -20 -123t-62 -112l-62 -61q-49 -35 -104.5 -52t-112.5 -17q-61 0 -119.5 19.5t-109.5 58.5l-69 69q-39 51 -58.5 109.5t-19.5 119.5q0 107 58 200l114 114q44 26 92 38.5t97 12.5zM256 366 q0 -31 12 -56.5t31.5 -44t44.5 -28.5t51 -10q37 0 71 20l49 49q20 34 20 71q0 28 -11.5 53.5t-30.5 44t-44.5 29.5t-53.5 11q-29 0 -54 -11t-44 -30t-30 -44.5t-11 -53.5z" unicode="O"/>
<glyph glyph-name="P" horiz-adv-x="595" d="M563 448q0 -59 -22 -110t-60 -89.5t-89.5 -60.5t-109.5 -22v-168h-211v731h211q58 0 109 -22t89.5 -60.5t60.5 -89.5t22 -109zM282 352q21 0 39.5 8t32 21.5t21.5 32t8 39.5t-8 39t-21.5 31.5t-32 22t-39.5 8.5v-202z" unicode="P"/>
<glyph glyph-name="Q" horiz-adv-x="797" d="M768 327q0 -63 -21 -123t-60 -110l52 -56l-127 -93l-43 53q-44 -18 -82.5 -27t-81.5 -9q-127 0 -229 78l-69 69q-38 50 -58.5 108.5t-20.5 120.5q0 106 58 201l115 114q45 26 92 38.5t98 12.5q86 0 155.5 -33t119 -86t76 -121t26.5 -137zM523 272q11 27 11 52 q0 29 -11.5 54.5t-31 44t-45 29.5t-53.5 11q-29 0 -54 -11t-44 -30t-30 -44.5t-11 -54.5t11.5 -54.5t30.5 -44.5t44.5 -29.5t52.5 -10.5q6 0 11 0.5t11 1.5l-40 47l118 72z" unicode="Q"/>
<glyph glyph-name="R" horiz-adv-x="631" d="M635 15l-205 -30l-97 197q-14 -3 -29 -5t-31 -2v-178h-212v731h211q57 0 107 -22t87.5 -59.5t59.5 -87.5t22 -107q0 -47 -14.5 -88.5t-40.5 -76.5z" unicode="R"/>
<glyph glyph-name="S" horiz-adv-x="545" d="M406 392q45 -23 66.5 -49t34.5 -60q6 -17 11 -34t5 -37q0 -39 -8.5 -72.5t-23.5 -61.5t-40 -51t-55.5 -39.5t-64 -25.5t-66.5 -9q-22 0 -45 4t-44.5 11t-40.5 16t-34 19q-52 37 -79 98l139 89q2 -5 8.5 -14.5t17.5 -19t26 -17t35 -7.5q25 0 41.5 19.5t16.5 42.5 q0 45 -73 69q-38 13 -69 32.5t-56 44.5q-14 14 -26 28t-21 30.5t-14.5 38t-5.5 51.5q0 24 4.5 50.5t16.5 52.5t32 51t51 47q30 21 68.5 36t97.5 15q54 0 94.5 -18t63.5 -38l38 -41l-116 -111q-3 6 -11.5 11.5t-19 10.5t-21.5 8t-21 3q-32 0 -48.5 -17t-16.5 -39 q0 -34 35 -57q9 -6 22 -10.5t27 -12.5t31.5 -17t37.5 -20z" unicode="S"/>
<glyph glyph-name="T" horiz-adv-x="586" d="M556 476h-152v-482h-205v482h-176v239h533v-239z" unicode="T"/>
<glyph glyph-name="U" horiz-adv-x="820" d="M403 -50q-54 0 -110.5 19.5t-107.5 58.5l-69 69q-38 50 -55 107t-17 117v379h234v-379q0 -62 32.5 -100.5t86.5 -38.5q53 0 86.5 36.5t33.5 102.5v359l243 10v-369q0 -54 -12.5 -105.5t-41.5 -98.5l-111 -116q-45 -26 -93.5 -38.5t-98.5 -12.5z" unicode="U"/>
<glyph glyph-name="V" horiz-adv-x="731" d="M482 -2l-231 -10l-241 732h241l135 -433l134 423h203z" unicode="V"/>
<glyph glyph-name="W" horiz-adv-x="977" d="M887 4l-287 3l-86 369l-67 -364l-314 -3l-73 691h212l42 -490l109 490h199l104 -442l41 458l191 -10z" unicode="W"/>
<glyph glyph-name="X" horiz-adv-x="755" d="M499 344l234 -339l-235 -2l-110 176l-116 -191l-272 2l239 370l-224 330l240 1l105 -169l103 172l252 -5z" unicode="X"/>
<glyph glyph-name="Y" horiz-adv-x="763" d="M478 305v-312h-249v321l-225 397l209 20l145 -251l191 256l219 -40z" unicode="Y"/>
<glyph glyph-name="Z" horiz-adv-x="717" d="M649 -7l-607 2l296 538h-278l3 198l546 -1l-3 -197l-196 -353h262z" unicode="Z"/>
<glyph glyph-name="bracketleft" horiz-adv-x="436" d="M70 749h346l-20 -168h-161l12 -453h169l-10 -160l-336 2v779z" unicode="["/>
<glyph glyph-name="backslash" horiz-adv-x="583" d="M562 21l-182 -89l-380 756l182 89z" unicode="\"/>
<glyph glyph-name="bracketright" horiz-adv-x="436" d="M356 -30h-326l-10 168h161l10 450l-171 3l20 158h326z" unicode="]"/>
<glyph glyph-name="asciicircum" horiz-adv-x="816" d="M708 185q17 -30 27.5 -52.5t16 -43t7.5 -40.5t2 -45l-215 -5q0 36 -20 68.5t-58 49.5q-23 10 -50 10h-27.5t-25.5 -5q-33 -17 -57.5 -41.5t-28.5 -74.5l-229 -7q0 41 10.5 83.5t30.5 81.5t48 72t63 56q-35 27 -63 61t-47.5 72t-30.5 80t-11 85q0 60 19 119t61 109l60 61 q48 33 102.5 49.5t107.5 16.5q118 0 222 -75l69 -67q37 -54 56 -109t19 -115q0 -52 -14.5 -100.5t-41.5 -93.5l-98 -96q22 -17 47.5 -41.5t48.5 -62.5zM290 671q-10 -17 -14.5 -35.5t-4.5 -36.5q0 -35 14 -61.5t35.5 -43.5t47 -25.5t47.5 -8.5q23 0 47 9.5t43.5 27.5 t31.5 43t12 56t-12.5 57t-33 45t-46.5 29t-52 10q-37 0 -69 -19z" unicode="^"/>
<glyph glyph-name="underscore" horiz-adv-x="500" d="M0 -65h500v-170h-500v170z" unicode="_"/>
<glyph glyph-name="grave" horiz-adv-x="500" d="M388 733l-309 67l39 133l304 -81z" unicode="`"/>
<glyph glyph-name="a" d="M474 131h-218l-43 -138l-208 3l232 704h277l207 -700l-209 -2z" unicode="a"/>
<glyph glyph-name="b" horiz-adv-x="595" d="M484 371q32 -29 52.5 -68t20.5 -84t-17 -85t-46 -70t-69 -47.5t-85 -17.5l-277 3l19 710l258 -4q44 -1 81.5 -16.5t65.5 -42.5t43.5 -62.5t15.5 -76.5q0 -42 -16 -79t-46 -60z" unicode="b"/>
<glyph glyph-name="c" horiz-adv-x="680" d="M663 102l-40 -40q-49 -34 -104 -51t-112 -17q-51 0 -101 14t-96 42l-119 115q-30 47 -45.5 99t-15.5 106q0 34 8 74.5t26 81t46 78t68 66.5t92.5 46.5t119.5 17.5q66 0 128 -22.5t116 -67.5l-131 -203q-20 26 -48.5 39.5t-59.5 13.5q-28 0 -53.5 -11t-44.5 -30 t-30.5 -44.5t-11.5 -53.5q0 -29 11.5 -54t30.5 -44t44.5 -30t53.5 -11q33 0 63.5 15.5t50.5 44.5z" unicode="c"/>
<glyph glyph-name="d" horiz-adv-x="662" d="M643 351q0 -107 -58 -200l-114 -114q-44 -26 -92 -38.5t-97 -12.5h-226l20 729h203q75 0 141.5 -28.5t116 -78t78 -116t28.5 -141.5zM281 218q28 0 52 10.5t42 28.5t28.5 42t10.5 52q0 27 -10.5 51t-28.5 42t-42.5 29t-51.5 11v-266z" unicode="d"/>
<glyph glyph-name="e" horiz-adv-x="580" d="M76 -15l-2 706l423 8l4 -171l-200 -4l-2 -100l210 -1v-184h-210v-90l208 6l4 -160z" unicode="e"/>
<glyph glyph-name="f" horiz-adv-x="569" d="M308 550v-155h213v-158h-213v-230h-226l-18 721l464 -13l-5 -171z" unicode="f"/>
<glyph glyph-name="g" horiz-adv-x="825" d="M795 348q-2 -59 -22 -110.5t-58 -111.5l-63 -63q-48 -35 -105.5 -52.5t-117.5 -17.5q-63 0 -123 20t-111 60l-71 71q-39 48 -59.5 109.5t-20.5 124.5q0 74 28 142t77 119.5t116 82.5t146 31q90 0 162 -34q1 0 13 -5t29 -14t36 -22.5t34 -30.5l-137 -152q-6 6 -18.5 11.5 t-27.5 9t-31 6t-30 2.5q-29 0 -58.5 -11t-53.5 -31.5t-39.5 -50.5t-15.5 -68q0 -42 25 -81t79 -61q27 -11 53 -11q25 0 53 5.5t51 18.5q11 5 19.5 13t13.5 15q3 4 5.5 8t4.5 9l-129 17v139h327z" unicode="g"/>
<glyph glyph-name="h" horiz-adv-x="769" d="M699 724v-728h-210v224h-230v-224h-189v724h189v-227h230v231h210z" unicode="h"/>
<glyph glyph-name="i" horiz-adv-x="380" d="M70 698h240v-715h-240v715z" unicode="i"/>
<glyph glyph-name="j" horiz-adv-x="596" d="M539 236q0 -79 -43 -148l-84 -84q-32 -19 -68 -28.5t-72 -9.5q-55 0 -103.5 19.5t-85 52.5t-57.5 78t-21 96v14t1 20l198 -3q0 -30 15.5 -44t36.5 -14t37 15.5t16 38.5v463h230v-466z" unicode="j"/>
<glyph glyph-name="k" horiz-adv-x="688" d="M502 -31l-220 239v-218h-212v729h212v-228l211 214l155 -122l-224 -232l249 -279z" unicode="k"/>
<glyph glyph-name="l" horiz-adv-x="542" d="M527 -5l-453 -13l-4 733h229v-527l223 6z" unicode="l"/>
<glyph glyph-name="m" horiz-adv-x="1002" d="M732 3l-42 498l-108 -511h-171l-112 524l-23 -528l-208 3l31 717l333 -2l65 -281l68 275l309 6l75 -699z" unicode="m"/>
<glyph glyph-name="n" horiz-adv-x="791" d="M714 699l-9 -692l-287 -7l-182 407v-411h-177v713h223l217 -481l2 467z" unicode="n"/>
<glyph glyph-name="o" horiz-adv-x="799" d="M392 746q86 0 155.5 -32.5t118.5 -86t75.5 -121t26.5 -136.5q0 -63 -20 -123t-62 -112l-62 -61q-49 -35 -104.5 -52t-112.5 -17q-61 0 -119.5 19.5t-109.5 58.5l-69 69q-39 51 -58.5 109.5t-19.5 119.5q0 107 58 200l114 114q44 26 92 38.5t97 12.5zM256 366 q0 -31 12 -56.5t31.5 -44t44.5 -28.5t51 -10q37 0 71 20l49 49q20 34 20 71q0 28 -11.5 53.5t-30.5 44t-44.5 29.5t-53.5 11q-29 0 -54 -11t-44 -30t-30 -44.5t-11 -53.5z" unicode="o"/>
<glyph glyph-name="p" horiz-adv-x="595" d="M563 448q0 -59 -22 -110t-60 -89.5t-89.5 -60.5t-109.5 -22v-168h-211v731h211q58 0 109 -22t89.5 -60.5t60.5 -89.5t22 -109zM282 352q21 0 39.5 8t32 21.5t21.5 32t8 39.5t-8 39t-21.5 31.5t-32 22t-39.5 8.5v-202z" unicode="p"/>
<glyph glyph-name="q" horiz-adv-x="797" d="M768 327q0 -63 -21 -123t-60 -110l52 -56l-127 -93l-43 53q-44 -18 -82.5 -27t-81.5 -9q-127 0 -229 78l-69 69q-38 50 -58.5 108.5t-20.5 120.5q0 106 58 201l115 114q45 26 92 38.5t98 12.5q86 0 155.5 -33t119 -86t76 -121t26.5 -137zM523 272q11 27 11 52 q0 29 -11.5 54.5t-31 44t-45 29.5t-53.5 11q-29 0 -54 -11t-44 -30t-30 -44.5t-11 -54.5t11.5 -54.5t30.5 -44.5t44.5 -29.5t52.5 -10.5q6 0 11 0.5t11 1.5l-40 47l118 72z" unicode="q"/>
<glyph glyph-name="r" horiz-adv-x="631" d="M635 15l-205 -30l-97 197q-14 -3 -29 -5t-31 -2v-178h-212v731h211q57 0 107 -22t87.5 -59.5t59.5 -87.5t22 -107q0 -47 -14.5 -88.5t-40.5 -76.5z" unicode="r"/>
<glyph glyph-name="s" horiz-adv-x="545" d="M406 392q45 -23 66.5 -49t34.5 -60q6 -17 11 -34t5 -37q0 -39 -8.5 -72.5t-23.5 -61.5t-40 -51t-55.5 -39.5t-64 -25.5t-66.5 -9q-22 0 -45 4t-44.5 11t-40.5 16t-34 19q-52 37 -79 98l139 89q2 -5 8.5 -14.5t17.5 -19t26 -17t35 -7.5q25 0 41.5 19.5t16.5 42.5 q0 45 -73 69q-38 13 -69 32.5t-56 44.5q-14 14 -26 28t-21 30.5t-14.5 38t-5.5 51.5q0 24 4.5 50.5t16.5 52.5t32 51t51 47q30 21 68.5 36t97.5 15q54 0 94.5 -18t63.5 -38l38 -41l-116 -111q-3 6 -11.5 11.5t-19 10.5t-21.5 8t-21 3q-32 0 -48.5 -17t-16.5 -39 q0 -34 35 -57q9 -6 22 -10.5t27 -12.5t31.5 -17t37.5 -20z" unicode="s"/>
<glyph glyph-name="t" horiz-adv-x="586" d="M556 476h-152v-482h-205v482h-176v239h533v-239z" unicode="t"/>
<glyph glyph-name="u" horiz-adv-x="820" d="M403 -50q-54 0 -110.5 19.5t-107.5 58.5l-69 69q-38 50 -55 107t-17 117v379h234v-379q0 -62 32.5 -100.5t86.5 -38.5q53 0 86.5 36.5t33.5 102.5v359l243 10v-369q0 -54 -12.5 -105.5t-41.5 -98.5l-111 -116q-45 -26 -93.5 -38.5t-98.5 -12.5z" unicode="u"/>
<glyph glyph-name="v" horiz-adv-x="731" d="M482 -2l-231 -10l-241 732h241l135 -433l134 423h203z" unicode="v"/>
<glyph glyph-name="w" horiz-adv-x="977" d="M887 4l-287 3l-86 369l-67 -364l-314 -3l-73 691h212l42 -490l109 490h199l104 -442l41 458l191 -10z" unicode="w"/>
<glyph glyph-name="x" horiz-adv-x="755" d="M499 344l234 -339l-235 -2l-110 176l-116 -191l-272 2l239 370l-224 330l240 1l105 -169l103 172l252 -5z" unicode="x"/>
<glyph glyph-name="y" horiz-adv-x="763" d="M478 305v-312h-249v321l-225 397l209 20l145 -251l191 256l219 -40z" unicode="y"/>
<glyph glyph-name="z" horiz-adv-x="717" d="M649 -7l-607 2l296 538h-278l3 198l546 -1l-3 -197l-196 -353h262z" unicode="z"/>
<glyph glyph-name="braceleft" horiz-adv-x="394" d="M253 186q0 -29 19.5 -49t48.5 -20h44l14 -148h-63q-105 0 -162.5 56t-57.5 162v93h-86l2 158h84v93q0 106 57.5 160.5t162.5 57.5l63 2l5 -156h-63q-29 0 -48.5 -20t-19.5 -49v-340z" unicode="{"/>
<glyph glyph-name="bar" horiz-adv-x="362" d="M80 736h222l-10 -756h-222z" unicode="|"/>
<glyph glyph-name="braceright" horiz-adv-x="394" d="M141 534q0 29 -19.5 49t-48.5 20h-44l-14 148h63q105 0 162.5 -56t57.5 -162v-93h86l-2 -158h-84v-93q0 -106 -57.5 -160.5t-162.5 -57.5l-63 -2l-5 156h63q29 0 48.5 20t19.5 49v340z" unicode="}"/>
<glyph glyph-name="asciitilde" horiz-adv-x="726" d="M60 217q-10 21 -15 48.5t-5 49.5q0 37 14.5 70.5t40.5 59t63 41t81 15.5q48 0 79.5 -17.5t54 -38.5t41 -38.5t41.5 -17.5q20 0 33.5 11.5t13.5 34.5q0 11 -2.5 19.5t-5.5 13.5l144 62q17 -20 32.5 -51t15.5 -70q0 -60 -22 -99t-52 -61.5t-62 -31.5t-52 -9q-50 0 -85.5 19 t-63.5 42t-51 42t-47 19q-21 0 -34 -12.5t-13 -31.5q0 -15 12 -33z" unicode="~"/>
<glyph glyph-name="uni00A0" horiz-adv-x="250" unicode=" "/>
<glyph glyph-name="exclamdown" horiz-adv-x="292" d="M60 696l176 -2v-165l-180 8zM56 471l184 6l-6 -515l-192 -6z" unicode="¡"/>
<glyph glyph-name="cent" horiz-adv-x="539" d="M529 82l-32 -32q-59 -41 -127 -50l-1 -96l-162 -4l1 121q-17 8 -32.5 17t-30.5 21l-53 53q-32 41 -47 87.5t-15 94.5q0 43 13 86t38 79.5t61 64.5t83 43l2 119l152 3l-1 -116q70 -15 128 -64l-109 -159q-13 17 -33 26t-41 9q-19 0 -36 -7.5t-29.5 -20.5t-20 -30t-7.5 -36 t7.5 -36t20 -29.5t29.5 -20t36 -7.5q23 0 43.5 10.5t33.5 29.5z" unicode="¢"/>
<glyph glyph-name="sterling" horiz-adv-x="650" d="M30 434l74 -1q1 64 24 117.5t61.5 92t90 60t110.5 21.5q29 0 60 -6t61.5 -20t59 -36.5t53.5 -56.5l-136 -128q-28 52 -83 52q-44 0 -65 -28.5t-21 -64.5v-7l161 -2l-8 -188l-153 3v-66l294 9l-7 -179l-502 -8v249l-77 2z" unicode="£"/>
<glyph glyph-name="currency" horiz-adv-x="630" d="M139 632l92 -96q37 15 79 15q48 0 90 -19l89 84l111 -116l-95 -84q12 -36 12 -73q0 -39 -16 -79l86 -93l-106 -105l-82 85q-43 -23 -96 -23q-35 0 -70 11l-86 -81l-118 112l84 82q-17 38 -17 86q0 54 25 101l-92 96zM253 335q0 -26 18 -42.5t40 -16.5q8 0 15.5 2.5 t14.5 6.5l20 20q8 12 8 31q0 23 -17 39.5t-41 16.5q-23 0 -40.5 -17t-17.5 -40z" unicode="¤"/>
<glyph glyph-name="yen" horiz-adv-x="650" d="M503 405l76 -1l3 -121l-160 2v-46l156 5l-5 -123l-151 -5v-132h-222v126l-158 -5l4 124l154 4v55l-151 2l4 124l84 -2l-120 230l199 77l111 -230l142 215l189 -73z" unicode="¥"/>
<glyph glyph-name="brokenbar" horiz-adv-x="362" d="M75 443l5 293h222l-5 -293h-222zM297 283l-5 -303h-222l5 303h222z" unicode="¦"/>
<glyph glyph-name="section" horiz-adv-x="526" d="M318 506q36 -9 68.5 -26t57 -42t38.5 -59t14 -77q0 -46 -20 -86.5t-49 -63.5q13 -25 20.5 -53.5t7.5 -60.5q0 -5 -0.5 -9t-0.5 -9q-7 -32 -25 -60t-47.5 -48.5t-69.5 -32.5t-90 -12q-6 0 -12 0.5t-12 0.5l-121 5v137l136 -2q24 0 40 12.5t16 32.5q0 23 -15 37t-57 23 q-45 10 -76.5 30.5t-51.5 47.5t-29.5 58t-9.5 62q0 42 18.5 84t58.5 68q-19 23 -27 49t-8 56v15t1 15q7 33 24.5 61t43.5 48.5t58.5 32.5t70.5 12h7l128 -3l-2 -146l-91 2h-3q-23 0 -39.5 -12t-16.5 -32q0 -21 14.5 -33.5t50.5 -21.5zM203 303q0 -24 18 -39.5t41 -15.5 q7 0 14.5 1.5t13.5 6.5l21 19q3 7 5.5 14t2.5 15q0 23 -17.5 39t-39.5 16q-25 0 -42 -16.5t-17 -39.5z" unicode="§"/>
<glyph glyph-name="dieresis" horiz-adv-x="500" d="M212 757l-150 -2l-2 151l156 -4zM280 904l150 2l2 -151l-145 -2z" unicode="¨"/>
<glyph glyph-name="copyright" horiz-adv-x="798" d="M392 746q96 0 166.5 -32.5t117 -86t69.5 -121t23 -136.5q0 -63 -20 -123t-62 -112l-62 -61q-49 -35 -104.5 -52t-112.5 -17q-61 0 -119.5 19.5t-109.5 58.5l-69 69q-39 51 -58.5 109.5t-19.5 119.5q0 107 58 200q20 32 46 61t68 53q44 26 92 38.5t97 12.5zM154 375 q0 -55 21 -100.5t56 -78t79 -50.5t91 -18q35 0 66.5 9t61.5 26q27 17 49 38t37 49q18 29 27 61.5t9 65.5q0 51 -18.5 96.5t-52.5 80t-82 55t-107 20.5q-51 0 -94 -21t-75 -56t-50 -81t-18 -96zM544 244l-20 -20q-26 -17 -53.5 -26t-54.5 -9q-65 0 -115 39l-35 34 q-39 51 -39 116q0 25 7 51t21 49l57 54q44 28 94 28q67 0 122 -47l-71 -113q-8 11 -21 17t-26 6q-20 0 -36 -16t-16 -39q0 -21 16 -36t36 -15q14 0 27 5.5t21 16.5z" unicode="©"/>
<glyph glyph-name="ordfeminine" horiz-adv-x="409" d="M237 450h-66l-23 -59l-116 1l105 308h148l92 -306l-118 -1zM21 349l371 -6v-130l-375 10z" unicode="ª"/>
<glyph glyph-name="guillemotleft" horiz-adv-x="644" d="M222 53l-217 300l202 273l131 -100l-130 -179l147 -183zM495 101l-204 265l207 254l131 -84l-119 -175l115 -165z" unicode="«"/>
<glyph glyph-name="logicalnot" horiz-adv-x="564" d="M40 431h474l-3 -317l-159 5v162h-302z" unicode="¬"/>
<glyph glyph-name="uni00AD" horiz-adv-x="494" d="M52 464l402 -3l-10 -190l-394 -10z" unicode="­"/>
<glyph glyph-name="registered" horiz-adv-x="543" d="M273 748q59 0 104 -23t75 -58.5t45 -77.5t15 -80q0 -40 -11.5 -78.5t-37.5 -70.5l-44 -45q-66 -52 -148 -52q-37 0 -73.5 11.5t-68.5 33.5l-41 40q-27 33 -42 73t-15 81q0 45 16.5 89t47.5 79t76 56.5t102 21.5zM426 505q0 32 -11.5 62t-32 53t-48 36.5t-60.5 13.5 t-62 -13t-51 -35.5t-35 -52t-13 -62.5q0 -34 12 -63.5t33 -51.5t49 -34.5t60 -12.5q30 0 59 11.5t51 32.5t35.5 50.5t13.5 65.5zM385 401l-76 -9l-33 60q-4 -1 -12 -1v-56h-75v227h72q39 0 67 -22t28 -64q0 -28 -19 -50z" unicode="®"/>
<glyph glyph-name="macron" horiz-adv-x="500" d="M81 891l323 3l-3 -132l-319 2z" unicode="¯"/>
<glyph glyph-name="degree" horiz-adv-x="401" d="M196 696q40 0 72.5 -15t55 -39.5t35 -56t12.5 -63.5q0 -29 -10 -56.5t-28 -50.5l-29 -29q-45 -33 -100 -33q-57 0 -105 37l-33 32q-18 23 -27 50t-9 55q0 42 21.5 79t56.5 66q22 13 43.5 18.5t44.5 5.5zM140 526q0 -24 17.5 -41.5t41.5 -17.5q23 0 40.5 17.5t17.5 41.5 q0 16 -9 29l-20 20q-13 8 -29 8q-23 0 -41 -15.5t-18 -41.5z" unicode="°"/>
<glyph glyph-name="plusminus" horiz-adv-x="564" d="M40 481h162v138l159 -10v-128h153l-10 -150h-143v-147l-159 10v137h-152zM54 138l460 -7l6 -150h-470z" unicode="±"/>
<glyph glyph-name="twosuperior" horiz-adv-x="390" d="M356 579q0 -22 -3 -36t-5 -18l-30 -51q-12 -14 -26.5 -25t-28.5 -22h84l2 -118h-287l-2 108q10 8 20.5 15.5t21.5 15.5q10 7 19.5 15t18.5 16q23 17 42 32t22 18q8 9 15 18.5t7 23.5q0 12 -6.5 18t-15 7.5t-16.5 -1t-12 -5.5q-6 -5 -14 -14.5t-13 -20.5l-109 50l27 39 q15 18 31.5 31t36.5 21t38 11t35 3t32 -2.5t29 -7.5q27 -12 41 -22.5t21 -18.5q11 -11 18 -29.5t7 -50.5z" unicode="²"/>
<glyph glyph-name="threesuperior" horiz-adv-x="390" d="M351 588q0 -11 -4 -24.5t-12 -27.5l-21 -25q20 -14 33 -33t13 -48q0 -19 -7 -38t-18 -33q-24 -22 -57.5 -37.5t-75.5 -15.5q-41 0 -69.5 10.5t-56.5 25.5q-17 14 -29.5 34t-20.5 40l109 44q5 -12 10 -21.5t15 -14.5q13 -8 34 -8q12 0 20 7.5t8 18.5t-9 18.5t-24 9.5 l-24 1l-2 81l32 2q14 1 20.5 9t6.5 16q0 12 -7 18q-5 5 -11.5 7t-11.5 2q-12 0 -23 -6.5t-19 -16.5l-14 -23l-101 49q15 27 31 45t36 32q20 11 47 16.5t54 5.5q32 0 60 -8.5t50 -25.5q16 -12 27 -37t11 -49z" unicode="³"/>
<glyph glyph-name="acute" horiz-adv-x="500" d="M72 847l311 86l33 -135l-303 -65z" unicode="´"/>
<glyph glyph-name="mu" horiz-adv-x="628" d="M235 540v-249q5 -42 28 -67.5t58 -25.5q38 0 62.5 30t24.5 83l-1 230l198 -1v-554h-188v56q-45 -22 -97 -24q-22 0 -43 5t-42 17v-214h-188v714h188z" unicode="µ"/>
<glyph glyph-name="paragraph" horiz-adv-x="808" d="M297 166q-63 1 -114 23t-87 59t-56 86t-20 104q0 50 17 101t55 101q42 41 93 65t112 24h181v-731h-181v168zM557 729h181v-731h-181v731z" unicode="¶"/>
<glyph glyph-name="periodcentered" horiz-adv-x="235" d="M200 287l-167 -3l-2 168h177z" unicode="·"/>
<glyph glyph-name="cedilla" horiz-adv-x="500" d="M158 77l168 -49l-125 -252l-165 86z" unicode="¸"/>
<glyph glyph-name="onesuperior" horiz-adv-x="390" d="M133 311l3 213l-78 -32l-4 143l126 68l106 -2v-390h-153z" unicode="¹"/>
<glyph glyph-name="ordmasculine" horiz-adv-x="411" d="M208 732q41 0 74 -15.5t56.5 -40.5t36 -57.5t12.5 -65.5q0 -29 -9 -58t-29 -53l-30 -29q-48 -34 -103 -34q-60 0 -109 38l-32 33q-19 23 -28.5 51.5t-9.5 57.5q0 49 28 94l54 54q44 25 89 25zM20 349l371 -1v-127h-367z" unicode="º"/>
<glyph glyph-name="guillemotright" horiz-adv-x="645" d="M434 631l206 -281l-201 -292l-138 108l132 163l-142 191zM138 616l212 -269l-191 -294l-144 98l128 175l-125 185z" unicode="»"/>
<glyph glyph-name="onequarter" horiz-adv-x="979" d="M102 311l3 213l-78 -32l-4 143l126 68l106 -2v-390h-153zM606 737l136 -91l-387 -678l-141 82zM774 0l8 96h-153l-13 104l175 191h135v-151l50 -4v-122h-50v-114h-152z" unicode="¼"/>
<glyph glyph-name="onehalf" horiz-adv-x="979" d="M105 311l3 213l-78 -32l-4 143l126 68l106 -2v-390h-153zM584 737l136 -91l-387 -678l-141 82zM955 278q0 -22 -3 -36t-5 -18l-30 -51q-12 -14 -26.5 -25t-28.5 -22h84l2 -118h-287l-2 108q10 8 20.5 15.5t21.5 15.5q10 7 19.5 15t18.5 16q23 17 42 32t22 18q8 9 15 18.5 t7 23.5q0 12 -6.5 18t-15 7.5t-16.5 -1t-12 -5.5q-6 -5 -14 -14.5t-13 -20.5l-109 50l27 39q15 18 31.5 31t36.5 21t38 11t35 3t32 -2.5t29 -7.5q27 -12 41 -22.5t21 -18.5q11 -11 18 -29.5t7 -50.5z" unicode="½"/>
<glyph glyph-name="threequarters" horiz-adv-x="979" d="M351 588q0 -11 -4 -24.5t-12 -27.5l-21 -25q20 -14 33 -33t13 -48q0 -19 -7 -38t-18 -33q-24 -22 -57.5 -37.5t-75.5 -15.5q-41 0 -69.5 10.5t-56.5 25.5q-17 14 -29.5 34t-20.5 40l109 44q5 -12 10 -21.5t15 -14.5q13 -8 34 -8q12 0 20 7.5t8 18.5t-9 18.5t-24 9.5 l-24 1l-2 81l32 2q14 1 20.5 9t6.5 16q0 12 -7 18q-5 5 -11.5 7t-11.5 2q-12 0 -23 -6.5t-19 -16.5l-14 -23l-101 49q15 27 31 45t36 32q20 11 47 16.5t54 5.5q32 0 60 -8.5t50 -25.5q16 -12 27 -37t11 -49zM643 737l136 -91l-387 -678l-141 82zM774 0l8 96h-153l-13 104 l175 191h135v-151l50 -4v-122h-50v-114h-152z" unicode="¾"/>
<glyph glyph-name="questiondown" horiz-adv-x="545" d="M167 724l195 4l-5 -162l-190 -7v165zM178 530l163 -84l-99 -152l-8 -14q-5 -7 -9 -19t-4 -21q0 -25 19 -43t44 -18q27 1 45.5 17.5t22.5 54.5l179 -1q0 -69 -22 -117l-106 -111q-35 -18 -73.5 -26.5t-78.5 -7.5q-53 1 -95.5 20.5t-72.5 50.5t-46 71t-16 82q0 38 12 78.5 t34 72.5z" unicode="¿"/>
<glyph glyph-name="Agrave" d="M474 131h-218l-43 -138l-208 3l232 704h277l207 -700l-209 -2zM526 733l-309 67l39 133l304 -81z" unicode="À"/>
<glyph glyph-name="Aacute" d="M474 131h-218l-43 -138l-208 3l232 704h277l207 -700l-209 -2zM194 847l311 86l33 -135l-303 -65z" unicode="Á"/>
<glyph glyph-name="Acircumflex" d="M474 131h-218l-43 -138l-208 3l232 704h277l207 -700l-209 -2zM172 826l185 123l212 -119l-63 -98l-133 80l-135 -77z" unicode="Â"/>
<glyph glyph-name="Atilde" d="M474 131h-218l-43 -138l-208 3l232 704h277l207 -700l-209 -2zM165 744q-1 5 -1 9.5v9.5q0 43 14 72.5t35.5 47.5t46.5 26t48 8q31 0 53.5 -11t35.5 -23q8 -7 18.5 -17t26.5 -10q15 0 28 12t13 38v5l104 -24q-7 -69 -47.5 -107t-99.5 -38q-30 0 -49 9t-32 20t-24.5 20 t-26.5 9q-17 0 -28 -10.5t-11 -32.5z" unicode="Ã"/>
<glyph glyph-name="Adieresis" d="M474 131h-218l-43 -138l-208 3l232 704h277l207 -700l-209 -2zM354 757l-150 -2l-2 151l156 -4zM422 904l150 2l2 -151l-145 -2z" unicode="Ä"/>
<glyph glyph-name="Aring" d="M474 131h-218l-43 -138l-208 3l232 705q-13 29 -13 64q0 25 8 50t24 45l29 29q22 17 46.5 24.5t48.5 7.5q52 0 91 -27l27 -27q17 -20 25 -46t8 -52q0 -36 -17 -70l207 -699l-209 -2zM330 770q0 -19 13 -32t33 -13t33.5 13t13.5 32q0 23 -14 35t-33 12q-18 0 -32 -13 t-14 -34z" unicode="Å"/>
<glyph glyph-name="AE" horiz-adv-x="944" d="M440 -15l-1 137h-173l-53 -138l-208 3l262 704h171l423 8l4 -171l-200 -4l-2 -100l210 -1v-184h-210v-90l208 6l4 -160z" unicode="Æ"/>
<glyph glyph-name="Ccedilla" horiz-adv-x="680" d="M266 21q-27 12 -56 29l-119 115q-30 47 -45.5 99t-15.5 106q0 34 8 74.5t26 81t46 78t68 66.5t92.5 46.5t119.5 17.5q66 0 128 -22.5t116 -67.5l-131 -203q-20 26 -48.5 39.5t-59.5 13.5q-28 0 -53.5 -11t-44.5 -30t-30.5 -44.5t-11.5 -53.5q0 -29 11.5 -54t30.5 -44 t44.5 -30t53.5 -11q33 0 63.5 15.5t50.5 44.5l154 -174l-40 -40q-80 -56 -173 -65l-109 -221l-165 86z" unicode="Ç"/>
<glyph glyph-name="Egrave" horiz-adv-x="580" d="M76 -15l-2 706l423 8l4 -171l-200 -4l-2 -100l210 -1v-184h-210v-90l208 6l4 -160zM418 733l-309 67l39 133l304 -81z" unicode="È"/>
<glyph glyph-name="Eacute" horiz-adv-x="580" d="M76 -15l-2 706l423 8l4 -171l-200 -4l-2 -100l210 -1v-184h-210v-90l208 6l4 -160zM122 847l311 86l33 -135l-303 -65z" unicode="É"/>
<glyph glyph-name="Ecircumflex" horiz-adv-x="580" d="M76 -15l-2 706l423 8l4 -171l-200 -4l-2 -100l210 -1v-184h-210v-90l208 6l4 -160zM91 826l185 123l212 -119l-63 -98l-133 80l-135 -77z" unicode="Ê"/>
<glyph glyph-name="Edieresis" horiz-adv-x="580" d="M76 -15l-2 706l423 8l4 -171l-200 -4l-2 -100l210 -1v-184h-210v-90l208 6l4 -160zM252 757l-150 -2l-2 151l156 -4zM320 904l150 2l2 -151l-145 -2z" unicode="Ë"/>
<glyph glyph-name="Igrave" horiz-adv-x="380" d="M70 698h240v-715h-240v715zM329 733l-309 67l39 133l304 -81z" unicode="Ì"/>
<glyph glyph-name="Iacute" horiz-adv-x="380" d="M70 698h240v-715h-240v715zM13 847l311 86l33 -135l-303 -65z" unicode="Í"/>
<glyph glyph-name="Icircumflex" horiz-adv-x="380" d="M70 698h240v-715h-240v715zM-8 826l185 123l212 -119l-63 -98l-133 80l-135 -77z" unicode="Î"/>
<glyph glyph-name="Idieresis" horiz-adv-x="380" d="M70 698h240v-715h-240v715zM153 757l-150 -2l-2 151l156 -4zM221 904l150 2l2 -151l-145 -2z" unicode="Ï"/>
<glyph glyph-name="Eth" horiz-adv-x="699" d="M0 456l104 1v258h212q75 0 141.5 -28.5t116 -78t78 -116t28.5 -141.5q0 -107 -58 -200l-114 -114q-44 -26 -92 -38.5t-97 -12.5h-215v252l-103 1zM318 218q28 0 52 10.5t42 28.5t28.5 42t10.5 52q0 27 -10.5 51t-28.5 42t-42.5 29t-51.5 11v-266z" unicode="Ð"/>
<glyph glyph-name="Ntilde" horiz-adv-x="791" d="M714 699l-9 -692l-287 -7l-182 407v-411h-177v713h223l217 -481l2 467zM188 744q-1 5 -1 9.5v9.5q0 43 14 72.5t35.5 47.5t46.5 26t48 8q31 0 53.5 -11t35.5 -23q8 -7 18.5 -17t26.5 -10q15 0 28 12t13 38v5l104 -24q-7 -69 -47.5 -107t-99.5 -38q-30 0 -49 9t-32 20 t-24.5 20t-26.5 9q-17 0 -28 -10.5t-11 -32.5z" unicode="Ñ"/>
<glyph glyph-name="Ograve" horiz-adv-x="799" d="M392 746q86 0 155.5 -32.5t118.5 -86t75.5 -121t26.5 -136.5q0 -63 -20 -123t-62 -112l-62 -61q-49 -35 -104.5 -52t-112.5 -17q-61 0 -119.5 19.5t-109.5 58.5l-69 69q-39 51 -58.5 109.5t-19.5 119.5q0 107 58 200l114 114q44 26 92 38.5t97 12.5zM256 366 q0 -31 12 -56.5t31.5 -44t44.5 -28.5t51 -10q37 0 71 20l49 49q20 34 20 71q0 28 -11.5 53.5t-30.5 44t-44.5 29.5t-53.5 11q-29 0 -54 -11t-44 -30t-30 -44.5t-11 -53.5zM537 763l-309 67l39 133l304 -81z" unicode="Ò"/>
<glyph glyph-name="Oacute" horiz-adv-x="799" d="M392 746q86 0 155.5 -32.5t118.5 -86t75.5 -121t26.5 -136.5q0 -63 -20 -123t-62 -112l-62 -61q-49 -35 -104.5 -52t-112.5 -17q-61 0 -119.5 19.5t-109.5 58.5l-69 69q-39 51 -58.5 109.5t-19.5 119.5q0 107 58 200l114 114q44 26 92 38.5t97 12.5zM256 366 q0 -31 12 -56.5t31.5 -44t44.5 -28.5t51 -10q37 0 71 20l49 49q20 34 20 71q0 28 -11.5 53.5t-30.5 44t-44.5 29.5t-53.5 11q-29 0 -54 -11t-44 -30t-30 -44.5t-11 -53.5zM221 887l311 86l33 -135l-303 -65z" unicode="Ó"/>
<glyph glyph-name="Ocircumflex" horiz-adv-x="799" d="M392 746q86 0 155.5 -32.5t118.5 -86t75.5 -121t26.5 -136.5q0 -63 -20 -123t-62 -112l-62 -61q-49 -35 -104.5 -52t-112.5 -17q-61 0 -119.5 19.5t-109.5 58.5l-69 69q-39 51 -58.5 109.5t-19.5 119.5q0 107 58 200l114 114q44 26 92 38.5t97 12.5zM256 366 q0 -31 12 -56.5t31.5 -44t44.5 -28.5t51 -10q37 0 71 20l49 49q20 34 20 71q0 28 -11.5 53.5t-30.5 44t-44.5 29.5t-53.5 11q-29 0 -54 -11t-44 -30t-30 -44.5t-11 -53.5zM200 866l185 123l212 -119l-63 -98l-133 80l-135 -77z" unicode="Ô"/>
<glyph glyph-name="Otilde" horiz-adv-x="799" d="M392 746q86 0 155.5 -32.5t118.5 -86t75.5 -121t26.5 -136.5q0 -63 -20 -123t-62 -112l-62 -61q-49 -35 -104.5 -52t-112.5 -17q-61 0 -119.5 19.5t-109.5 58.5l-69 69q-39 51 -58.5 109.5t-19.5 119.5q0 107 58 200l114 114q44 26 92 38.5t97 12.5zM256 366 q0 -31 12 -56.5t31.5 -44t44.5 -28.5t51 -10q37 0 71 20l49 49q20 34 20 71q0 28 -11.5 53.5t-30.5 44t-44.5 29.5t-53.5 11q-29 0 -54 -11t-44 -30t-30 -44.5t-11 -53.5zM192 784q-1 5 -1 9.5v9.5q0 43 14 72.5t35.5 47.5t46.5 26t48 8q31 0 53.5 -11t35.5 -23 q8 -7 18.5 -17t26.5 -10q15 0 28 12t13 38v5l104 -24q-7 -69 -47.5 -107t-99.5 -38q-30 0 -49 9t-32 20t-24.5 20t-26.5 9q-17 0 -28 -10.5t-11 -32.5z" unicode="Õ"/>
<glyph glyph-name="Odieresis" horiz-adv-x="799" d="M392 746q86 0 155.5 -32.5t118.5 -86t75.5 -121t26.5 -136.5q0 -63 -20 -123t-62 -112l-62 -61q-49 -35 -104.5 -52t-112.5 -17q-61 0 -119.5 19.5t-109.5 58.5l-69 69q-39 51 -58.5 109.5t-19.5 119.5q0 107 58 200l114 114q44 26 92 38.5t97 12.5zM256 366 q0 -31 12 -56.5t31.5 -44t44.5 -28.5t51 -10q37 0 71 20l49 49q20 34 20 71q0 28 -11.5 53.5t-30.5 44t-44.5 29.5t-53.5 11q-29 0 -54 -11t-44 -30t-30 -44.5t-11 -53.5zM361 797l-150 -2l-2 151l156 -4zM429 944l150 2l2 -151l-145 -2z" unicode="Ö"/>
<glyph glyph-name="multiply" horiz-adv-x="564" d="M58 234l106 117l-105 114l100 113l115 -107l113 106l123 -112l-115 -122l105 -114l-99 -100l-107 95l-119 -107z" unicode="×"/>
<glyph glyph-name="Oslash" horiz-adv-x="799" d="M761 715l-78 -108q41 -51 63 -112.5t22 -124.5t-20 -123t-62 -112l-62 -61q-49 -35 -104.5 -52t-112.5 -17q-72 0 -137 25l-84 -119l-152 114l83 118l-8 9q-39 51 -58.5 109.5t-19.5 119.5q0 107 58 200l114 114q44 26 92 38.5t97 12.5q38 0 72.5 -7t66.5 -20l79 112z M256 366q0 -31 12 -56.5t31.5 -44t44.5 -28.5t51 -10q37 0 71 20l49 49q20 34 20 71q0 28 -11.5 53.5t-30.5 44t-44.5 29.5t-53.5 11q-29 0 -54 -11t-44 -30t-30 -44.5t-11 -53.5z" unicode="Ø"/>
<glyph glyph-name="Ugrave" horiz-adv-x="820" d="M403 -50q-54 0 -110.5 19.5t-107.5 58.5l-69 69q-38 50 -55 107t-17 117v379h234v-379q0 -62 32.5 -100.5t86.5 -38.5q53 0 86.5 36.5t33.5 102.5v359l243 10v-369q0 -54 -12.5 -105.5t-41.5 -98.5l-111 -116q-45 -26 -93.5 -38.5t-98.5 -12.5zM508 733l-309 67l39 133 l304 -81z" unicode="Ù"/>
<glyph glyph-name="Uacute" horiz-adv-x="820" d="M403 -50q-54 0 -110.5 19.5t-107.5 58.5l-69 69q-38 50 -55 107t-17 117v379h234v-379q0 -62 32.5 -100.5t86.5 -38.5q53 0 86.5 36.5t33.5 102.5v359l243 10v-369q0 -54 -12.5 -105.5t-41.5 -98.5l-111 -116q-45 -26 -93.5 -38.5t-98.5 -12.5zM252 857l311 86l33 -135 l-303 -65z" unicode="Ú"/>
<glyph glyph-name="Ucircumflex" horiz-adv-x="820" d="M403 -50q-54 0 -110.5 19.5t-107.5 58.5l-69 69q-38 50 -55 107t-17 117v379h234v-379q0 -62 32.5 -100.5t86.5 -38.5q53 0 86.5 36.5t33.5 102.5v359l243 10v-369q0 -54 -12.5 -105.5t-41.5 -98.5l-111 -116q-45 -26 -93.5 -38.5t-98.5 -12.5zM211 826l185 123l212 -119 l-63 -98l-133 80l-135 -77z" unicode="Û"/>
<glyph glyph-name="Udieresis" horiz-adv-x="820" d="M403 -50q-54 0 -110.5 19.5t-107.5 58.5l-69 69q-38 50 -55 107t-17 117v379h234v-379q0 -62 32.5 -100.5t86.5 -38.5q53 0 86.5 36.5t33.5 102.5v359l243 10v-369q0 -54 -12.5 -105.5t-41.5 -98.5l-111 -116q-45 -26 -93.5 -38.5t-98.5 -12.5zM372 757l-150 -2l-2 151 l156 -4zM440 904l150 2l2 -151l-145 -2z" unicode="Ü"/>
<glyph glyph-name="Yacute" horiz-adv-x="763" d="M478 305v-312h-249v321l-225 397l209 20l145 -251l191 256l219 -40zM247 867l311 86l33 -135l-303 -65z" unicode="Ý"/>
<glyph glyph-name="Thorn" horiz-adv-x="595" d="M563 368q0 -59 -22 -110t-60 -89.5t-89.5 -60.5t-109.5 -22v-105h-211v778h211v-110q58 0 109 -22t89.5 -60.5t60.5 -89.5t22 -109zM282 272q21 0 39.5 8t32 21.5t21.5 32t8 39.5t-8 39t-21.5 31.5t-32 22t-39.5 8.5v-202z" unicode="Þ"/>
<glyph glyph-name="germandbls" horiz-adv-x="1085" d="M406 392q45 -23 66.5 -49t34.5 -60q6 -17 11 -34t5 -37q0 -39 -8.5 -72.5t-23.5 -61.5t-40 -51t-55.5 -39.5t-64 -25.5t-66.5 -9q-22 0 -45 4t-44.5 11t-40.5 16t-34 19q-52 37 -79 98l139 89q2 -5 8.5 -14.5t17.5 -19t26 -17t35 -7.5q25 0 41.5 19.5t16.5 42.5 q0 45 -73 69q-38 13 -69 32.5t-56 44.5q-14 14 -26 28t-21 30.5t-14.5 38t-5.5 51.5q0 24 4.5 50.5t16.5 52.5t32 51t51 47q30 21 68.5 36t97.5 15q54 0 94.5 -18t63.5 -38l38 -41l-116 -111q-3 6 -11.5 11.5t-19 10.5t-21.5 8t-21 3q-32 0 -48.5 -17t-16.5 -39 q0 -34 35 -57q9 -6 22 -10.5t27 -12.5t31.5 -17t37.5 -20zM946 392q45 -23 66.5 -49t34.5 -60q6 -17 11 -34t5 -37q0 -39 -8.5 -72.5t-23.5 -61.5t-40 -51t-55.5 -39.5t-64 -25.5t-66.5 -9q-22 0 -45 4t-44.5 11t-40.5 16t-34 19q-52 37 -79 98l139 89q2 -5 8.5 -14.5 t17.5 -19t26 -17t35 -7.5q25 0 41.5 19.5t16.5 42.5q0 45 -73 69q-38 13 -69 32.5t-56 44.5q-14 14 -26 28t-21 30.5t-14.5 38t-5.5 51.5q0 24 4.5 50.5t16.5 52.5t32 51t51 47q30 21 68.5 36t97.5 15q54 0 94.5 -18t63.5 -38l38 -41l-116 -111q-3 6 -11.5 11.5t-19 10.5 t-21.5 8t-21 3q-32 0 -48.5 -17t-16.5 -39q0 -34 35 -57q9 -6 22 -10.5t27 -12.5t31.5 -17t37.5 -20z" unicode="ß"/>
<glyph glyph-name="agrave" d="M474 131h-218l-43 -138l-208 3l232 704h277l207 -700l-209 -2zM526 733l-309 67l39 133l304 -81z" unicode="à"/>
<glyph glyph-name="aacute" d="M474 131h-218l-43 -138l-208 3l232 704h277l207 -700l-209 -2zM194 847l311 86l33 -135l-303 -65z" unicode="á"/>
<glyph glyph-name="acircumflex" d="M474 131h-218l-43 -138l-208 3l232 704h277l207 -700l-209 -2zM172 826l185 123l212 -119l-63 -98l-133 80l-135 -77z" unicode="â"/>
<glyph glyph-name="atilde" d="M474 131h-218l-43 -138l-208 3l232 704h277l207 -700l-209 -2zM165 744q-1 5 -1 9.5v9.5q0 43 14 72.5t35.5 47.5t46.5 26t48 8q31 0 53.5 -11t35.5 -23q8 -7 18.5 -17t26.5 -10q15 0 28 12t13 38v5l104 -24q-7 -69 -47.5 -107t-99.5 -38q-30 0 -49 9t-32 20t-24.5 20 t-26.5 9q-17 0 -28 -10.5t-11 -32.5z" unicode="ã"/>
<glyph glyph-name="adieresis" d="M474 131h-218l-43 -138l-208 3l232 704h277l207 -700l-209 -2zM354 757l-150 -2l-2 151l156 -4zM422 904l150 2l2 -151l-145 -2z" unicode="ä"/>
<glyph glyph-name="aring" d="M474 131h-218l-43 -138l-208 3l232 705q-13 29 -13 64q0 25 8 50t24 45l29 29q22 17 46.5 24.5t48.5 7.5q52 0 91 -27l27 -27q17 -20 25 -46t8 -52q0 -36 -17 -70l207 -699l-209 -2zM330 770q0 -19 13 -32t33 -13t33.5 13t13.5 32q0 23 -14 35t-33 12q-18 0 -32 -13 t-14 -34z" unicode="å"/>
<glyph glyph-name="ae" horiz-adv-x="944" d="M440 -15l-1 137h-173l-53 -138l-208 3l262 704h171l423 8l4 -171l-200 -4l-2 -100l210 -1v-184h-210v-90l208 6l4 -160z" unicode="æ"/>
<glyph glyph-name="ccedilla" horiz-adv-x="680" d="M266 21q-27 12 -56 29l-119 115q-30 47 -45.5 99t-15.5 106q0 34 8 74.5t26 81t46 78t68 66.5t92.5 46.5t119.5 17.5q66 0 128 -22.5t116 -67.5l-131 -203q-20 26 -48.5 39.5t-59.5 13.5q-28 0 -53.5 -11t-44.5 -30t-30.5 -44.5t-11.5 -53.5q0 -29 11.5 -54t30.5 -44 t44.5 -30t53.5 -11q33 0 63.5 15.5t50.5 44.5l154 -174l-40 -40q-80 -56 -173 -65l-109 -221l-165 86z" unicode="ç"/>
<glyph glyph-name="egrave" horiz-adv-x="580" d="M76 -15l-2 706l423 8l4 -171l-200 -4l-2 -100l210 -1v-184h-210v-90l208 6l4 -160zM418 733l-309 67l39 133l304 -81z" unicode="è"/>
<glyph glyph-name="eacute" horiz-adv-x="580" d="M76 -15l-2 706l423 8l4 -171l-200 -4l-2 -100l210 -1v-184h-210v-90l208 6l4 -160zM122 847l311 86l33 -135l-303 -65z" unicode="é"/>
<glyph glyph-name="ecircumflex" horiz-adv-x="580" d="M76 -15l-2 706l423 8l4 -171l-200 -4l-2 -100l210 -1v-184h-210v-90l208 6l4 -160zM91 826l185 123l212 -119l-63 -98l-133 80l-135 -77z" unicode="ê"/>
<glyph glyph-name="edieresis" horiz-adv-x="580" d="M76 -15l-2 706l423 8l4 -171l-200 -4l-2 -100l210 -1v-184h-210v-90l208 6l4 -160zM252 757l-150 -2l-2 151l156 -4zM320 904l150 2l2 -151l-145 -2z" unicode="ë"/>
<glyph glyph-name="igrave" horiz-adv-x="380" d="M70 698h240v-715h-240v715zM329 733l-309 67l39 133l304 -81z" unicode="ì"/>
<glyph glyph-name="iacute" horiz-adv-x="380" d="M70 698h240v-715h-240v715zM13 847l311 86l33 -135l-303 -65z" unicode="í"/>
<glyph glyph-name="icircumflex" horiz-adv-x="380" d="M70 698h240v-715h-240v715zM-8 826l185 123l212 -119l-63 -98l-133 80l-135 -77z" unicode="î"/>
<glyph glyph-name="idieresis" horiz-adv-x="380" d="M70 698h240v-715h-240v715zM153 757l-150 -2l-2 151l156 -4zM221 904l150 2l2 -151l-145 -2z" unicode="ï"/>
<glyph glyph-name="eth" horiz-adv-x="699" d="M0 456l104 1v258h212q75 0 141.5 -28.5t116 -78t78 -116t28.5 -141.5q0 -107 -58 -200l-114 -114q-44 -26 -92 -38.5t-97 -12.5h-215v252l-103 1zM318 218q28 0 52 10.5t42 28.5t28.5 42t10.5 52q0 27 -10.5 51t-28.5 42t-42.5 29t-51.5 11v-266z" unicode="ð"/>
<glyph glyph-name="ntilde" horiz-adv-x="791" d="M714 699l-9 -692l-287 -7l-182 407v-411h-177v713h223l217 -481l2 467zM188 744q-1 5 -1 9.5v9.5q0 43 14 72.5t35.5 47.5t46.5 26t48 8q31 0 53.5 -11t35.5 -23q8 -7 18.5 -17t26.5 -10q15 0 28 12t13 38v5l104 -24q-7 -69 -47.5 -107t-99.5 -38q-30 0 -49 9t-32 20 t-24.5 20t-26.5 9q-17 0 -28 -10.5t-11 -32.5z" unicode="ñ"/>
<glyph glyph-name="ograve" horiz-adv-x="799" d="M392 746q86 0 155.5 -32.5t118.5 -86t75.5 -121t26.5 -136.5q0 -63 -20 -123t-62 -112l-62 -61q-49 -35 -104.5 -52t-112.5 -17q-61 0 -119.5 19.5t-109.5 58.5l-69 69q-39 51 -58.5 109.5t-19.5 119.5q0 107 58 200l114 114q44 26 92 38.5t97 12.5zM256 366 q0 -31 12 -56.5t31.5 -44t44.5 -28.5t51 -10q37 0 71 20l49 49q20 34 20 71q0 28 -11.5 53.5t-30.5 44t-44.5 29.5t-53.5 11q-29 0 -54 -11t-44 -30t-30 -44.5t-11 -53.5zM537 763l-309 67l39 133l304 -81z" unicode="ò"/>
<glyph glyph-name="oacute" horiz-adv-x="799" d="M392 746q86 0 155.5 -32.5t118.5 -86t75.5 -121t26.5 -136.5q0 -63 -20 -123t-62 -112l-62 -61q-49 -35 -104.5 -52t-112.5 -17q-61 0 -119.5 19.5t-109.5 58.5l-69 69q-39 51 -58.5 109.5t-19.5 119.5q0 107 58 200l114 114q44 26 92 38.5t97 12.5zM256 366 q0 -31 12 -56.5t31.5 -44t44.5 -28.5t51 -10q37 0 71 20l49 49q20 34 20 71q0 28 -11.5 53.5t-30.5 44t-44.5 29.5t-53.5 11q-29 0 -54 -11t-44 -30t-30 -44.5t-11 -53.5zM221 887l311 86l33 -135l-303 -65z" unicode="ó"/>
<glyph glyph-name="ocircumflex" horiz-adv-x="799" d="M392 746q86 0 155.5 -32.5t118.5 -86t75.5 -121t26.5 -136.5q0 -63 -20 -123t-62 -112l-62 -61q-49 -35 -104.5 -52t-112.5 -17q-61 0 -119.5 19.5t-109.5 58.5l-69 69q-39 51 -58.5 109.5t-19.5 119.5q0 107 58 200l114 114q44 26 92 38.5t97 12.5zM256 366 q0 -31 12 -56.5t31.5 -44t44.5 -28.5t51 -10q37 0 71 20l49 49q20 34 20 71q0 28 -11.5 53.5t-30.5 44t-44.5 29.5t-53.5 11q-29 0 -54 -11t-44 -30t-30 -44.5t-11 -53.5zM200 866l185 123l212 -119l-63 -98l-133 80l-135 -77z" unicode="ô"/>
<glyph glyph-name="otilde" horiz-adv-x="799" d="M392 746q86 0 155.5 -32.5t118.5 -86t75.5 -121t26.5 -136.5q0 -63 -20 -123t-62 -112l-62 -61q-49 -35 -104.5 -52t-112.5 -17q-61 0 -119.5 19.5t-109.5 58.5l-69 69q-39 51 -58.5 109.5t-19.5 119.5q0 107 58 200l114 114q44 26 92 38.5t97 12.5zM256 366 q0 -31 12 -56.5t31.5 -44t44.5 -28.5t51 -10q37 0 71 20l49 49q20 34 20 71q0 28 -11.5 53.5t-30.5 44t-44.5 29.5t-53.5 11q-29 0 -54 -11t-44 -30t-30 -44.5t-11 -53.5zM192 784q-1 5 -1 9.5v9.5q0 43 14 72.5t35.5 47.5t46.5 26t48 8q31 0 53.5 -11t35.5 -23 q8 -7 18.5 -17t26.5 -10q15 0 28 12t13 38v5l104 -24q-7 -69 -47.5 -107t-99.5 -38q-30 0 -49 9t-32 20t-24.5 20t-26.5 9q-17 0 -28 -10.5t-11 -32.5z" unicode="õ"/>
<glyph glyph-name="odieresis" horiz-adv-x="799" d="M392 746q86 0 155.5 -32.5t118.5 -86t75.5 -121t26.5 -136.5q0 -63 -20 -123t-62 -112l-62 -61q-49 -35 -104.5 -52t-112.5 -17q-61 0 -119.5 19.5t-109.5 58.5l-69 69q-39 51 -58.5 109.5t-19.5 119.5q0 107 58 200l114 114q44 26 92 38.5t97 12.5zM256 366 q0 -31 12 -56.5t31.5 -44t44.5 -28.5t51 -10q37 0 71 20l49 49q20 34 20 71q0 28 -11.5 53.5t-30.5 44t-44.5 29.5t-53.5 11q-29 0 -54 -11t-44 -30t-30 -44.5t-11 -53.5zM361 797l-150 -2l-2 151l156 -4zM429 944l150 2l2 -151l-145 -2z" unicode="ö"/>
<glyph glyph-name="divide" horiz-adv-x="564" d="M50 441l467 9l-3 -179l-464 3v167zM363 502l-146 -3l-2 142h143zM348 66l-141 -2l-3 145l150 -3z" unicode="÷"/>
<glyph glyph-name="oslash" horiz-adv-x="799" d="M761 715l-78 -108q41 -51 63 -112.5t22 -124.5t-20 -123t-62 -112l-62 -61q-49 -35 -104.5 -52t-112.5 -17q-72 0 -137 25l-84 -119l-152 114l83 118l-8 9q-39 51 -58.5 109.5t-19.5 119.5q0 107 58 200l114 114q44 26 92 38.5t97 12.5q38 0 72.5 -7t66.5 -20l79 112z M256 366q0 -31 12 -56.5t31.5 -44t44.5 -28.5t51 -10q37 0 71 20l49 49q20 34 20 71q0 28 -11.5 53.5t-30.5 44t-44.5 29.5t-53.5 11q-29 0 -54 -11t-44 -30t-30 -44.5t-11 -53.5z" unicode="ø"/>
<glyph glyph-name="ugrave" horiz-adv-x="820" d="M403 -50q-54 0 -110.5 19.5t-107.5 58.5l-69 69q-38 50 -55 107t-17 117v379h234v-379q0 -62 32.5 -100.5t86.5 -38.5q53 0 86.5 36.5t33.5 102.5v359l243 10v-369q0 -54 -12.5 -105.5t-41.5 -98.5l-111 -116q-45 -26 -93.5 -38.5t-98.5 -12.5zM508 733l-309 67l39 133 l304 -81z" unicode="ù"/>
<glyph glyph-name="uacute" horiz-adv-x="820" d="M403 -50q-54 0 -110.5 19.5t-107.5 58.5l-69 69q-38 50 -55 107t-17 117v379h234v-379q0 -62 32.5 -100.5t86.5 -38.5q53 0 86.5 36.5t33.5 102.5v359l243 10v-369q0 -54 -12.5 -105.5t-41.5 -98.5l-111 -116q-45 -26 -93.5 -38.5t-98.5 -12.5zM252 857l311 86l33 -135 l-303 -65z" unicode="ú"/>
<glyph glyph-name="ucircumflex" horiz-adv-x="820" d="M403 -50q-54 0 -110.5 19.5t-107.5 58.5l-69 69q-38 50 -55 107t-17 117v379h234v-379q0 -62 32.5 -100.5t86.5 -38.5q53 0 86.5 36.5t33.5 102.5v359l243 10v-369q0 -54 -12.5 -105.5t-41.5 -98.5l-111 -116q-45 -26 -93.5 -38.5t-98.5 -12.5zM211 826l185 123l212 -119 l-63 -98l-133 80l-135 -77z" unicode="û"/>
<glyph glyph-name="udieresis" horiz-adv-x="820" d="M403 -50q-54 0 -110.5 19.5t-107.5 58.5l-69 69q-38 50 -55 107t-17 117v379h234v-379q0 -62 32.5 -100.5t86.5 -38.5q53 0 86.5 36.5t33.5 102.5v359l243 10v-369q0 -54 -12.5 -105.5t-41.5 -98.5l-111 -116q-45 -26 -93.5 -38.5t-98.5 -12.5zM372 757l-150 -2l-2 151 l156 -4zM440 904l150 2l2 -151l-145 -2z" unicode="ü"/>
<glyph glyph-name="yacute" horiz-adv-x="763" d="M478 305v-312h-249v321l-225 397l209 20l145 -251l191 256l219 -40zM247 867l311 86l33 -135l-303 -65z" unicode="ý"/>
<glyph glyph-name="thorn" horiz-adv-x="595" d="M563 368q0 -59 -22 -110t-60 -89.5t-89.5 -60.5t-109.5 -22v-105h-211v778h211v-110q58 0 109 -22t89.5 -60.5t60.5 -89.5t22 -109zM282 272q21 0 39.5 8t32 21.5t21.5 32t8 39.5t-8 39t-21.5 31.5t-32 22t-39.5 8.5v-202z" unicode="þ"/>
<glyph glyph-name="circumflex" horiz-adv-x="500" d="M51 826l185 123l212 -119l-63 -98l-133 80l-135 -77z" unicode="ˆ"/>
<glyph glyph-name="tilde" horiz-adv-x="500" d="M43 744q-1 5 -1 9.5v9.5q0 43 14 72.5t35.5 47.5t46.5 26t48 8q31 0 53.5 -11t35.5 -23q8 -7 18.5 -17t26.5 -10q15 0 28 12t13 38v5l104 -24q-7 -69 -47.5 -107t-99.5 -38q-30 0 -49 9t-32 20t-24.5 20t-26.5 9q-17 0 -28 -10.5t-11 -32.5z" unicode="˜"/>
<glyph glyph-name="fraction" horiz-adv-x="208" d="M232 737l136 -91l-387 -678l-141 82z" unicode="⁄"/>
<glyph glyph-name="foursuperior" horiz-adv-x="390" d="M182 311l8 96h-153l-13 104l175 191h135v-151l50 -4v-122h-50v-114h-152z" unicode="⁴"/>
</font>
</defs>
</svg>
