<?xml version="1.0" encoding="UTF-8" standalone="no"?>
<!-- Created with Inkscape (http://www.inkscape.org/) -->

<svg
   xmlns:dc="http://purl.org/dc/elements/1.1/"
   xmlns:cc="http://creativecommons.org/ns#"
   xmlns:rdf="http://www.w3.org/1999/02/22-rdf-syntax-ns#"
   xmlns:svg="http://www.w3.org/2000/svg"
   xmlns="http://www.w3.org/2000/svg"
   xmlns:sodipodi="http://sodipodi.sourceforge.net/DTD/sodipodi-0.dtd"
   xmlns:inkscape="http://www.inkscape.org/namespaces/inkscape"
   width="63.292736mm"
   height="97.125328mm"
   viewBox="0 0 224.2656 344.14486"
   id="svg2"
   version="1.1"
   inkscape:version="0.91 r13725"
   sodipodi:docname="end_marker.svg">
  <defs
     id="defs4" />
  <sodipodi:namedview
     id="base"
     pagecolor="#ffffff"
     bordercolor="#666666"
     borderopacity="1.0"
     inkscape:pageopacity="0.0"
     inkscape:pageshadow="2"
     inkscape:zoom="0.71"
     inkscape:cx="-85.402417"
     inkscape:cy="265.03012"
     inkscape:document-units="px"
     inkscape:current-layer="layer1"
     showgrid="false"
     inkscape:window-width="1680"
     inkscape:window-height="926"
     inkscape:window-x="0"
     inkscape:window-y="0"
     inkscape:window-maximized="1"
     fit-margin-top="0"
     fit-margin-left="0"
     fit-margin-right="0"
     fit-margin-bottom="0" />
  <metadata
     id="metadata7">
    <rdf:RDF>
      <cc:Work
         rdf:about="">
        <dc:format>image/svg+xml</dc:format>
        <dc:type
           rdf:resource="http://purl.org/dc/dcmitype/StillImage" />
        <dc:title></dc:title>
      </cc:Work>
    </rdf:RDF>
  </metadata>
  <g
     inkscape:label="Layer 1"
     inkscape:groupmode="layer"
     id="layer1"
     transform="translate(-213.84306,-224.67602)">
    <text
       xml:space="preserve"
       style="font-style:normal;font-variant:normal;font-weight:normal;font-stretch:normal;font-size:40px;line-height:125%;font-family:FontAwesome;-inkscape-font-specification:FontAwesome;letter-spacing:0px;word-spacing:0px;fill:#000000;fill-opacity:1;stroke:none;stroke-width:1px;stroke-linecap:butt;stroke-linejoin:miter;stroke-opacity:1"
       x="251.42857"
       y="506.64792"
       id="text3336"
       sodipodi:linespacing="125%"><tspan
         sodipodi:role="line"
         id="tspan3338"
         x="251.42857"
         y="506.64792" /></text>
    <g
       transform="scale(0.98868128,1.0114483)"
       style="font-style:normal;font-weight:normal;font-size:396.95785522px;line-height:125%;font-family:sans-serif;letter-spacing:0px;word-spacing:0px;fill:#5f0037;fill-opacity:1;stroke:none;stroke-width:1px;stroke-linecap:butt;stroke-linejoin:miter;stroke-opacity:1"
       id="text3340">
      <path
         d="m 426.3041,335.54951 c 0,31.23385 -65.36252,56.70827 -96.59637,56.70827 -31.23385,0 -98.02095,-26.86693 -98.02095,-58.10078 0,-31.23384 66.7871,-52.53073 98.02095,-52.53073 31.23385,0 96.59637,22.6894 96.59637,53.92324 z m 16.82016,0 c 0,-62.68921 -50.72732,-113.41653 -113.41653,-113.41653 -62.68922,0 -113.41653,50.72732 -113.41653,113.41653 0,13.51252 1.55062,27.46807 7.31005,39.65149 l 80.85358,171.45389 c 4.43033,9.74674 14.6201,15.72768 25.2529,15.72768 10.6328,0 20.82256,-5.98094 25.47441,-15.72768 L 435.81421,375.201 c 5.75943,-12.18342 7.31005,-26.13897 7.31005,-39.65149 z"
         id="path3345"
         inkscape:connector-curvature="0"
         sodipodi:nodetypes="ssssssssccsccs"
         style="fill:#5f0037;fill-opacity:1" />
    </g>
    <g
       transform="matrix(1.2863217,0,0,2.0066497,-91.80729,-328.77637)"
       style="font-style:normal;font-weight:normal;font-size:40px;line-height:125%;font-family:sans-serif;letter-spacing:0px;word-spacing:0px;fill:#5f0037;fill-opacity:1;stroke:none;stroke-width:1px;stroke-linecap:butt;stroke-linejoin:miter;stroke-opacity:1"
       id="flowRoot3347">
      <path
         d="m 289.47709,337.12897 q 0,1.3887 -0.65445,2.74548 -0.63848,1.35678 -1.80372,2.29854 -1.27697,1.02158 -2.98491,1.59621 -1.69198,0.57464 -4.0863,0.57464 -2.5699,0 -4.62901,-0.47887 -2.04315,-0.47886 -4.16611,-1.42062 l 0,-3.9586 0.22347,0 q 1.80372,1.50043 4.16611,2.3145 2.36239,0.81407 4.43747,0.81407 2.93702,0 4.56516,-1.10139 1.64409,-1.10138 1.64409,-2.93702 0,-1.58025 -0.78214,-2.33047 -0.76618,-0.75022 -2.34643,-1.16523 -1.19716,-0.31925 -2.60182,-0.52675 -1.3887,-0.20751 -2.95299,-0.52675 -3.1605,-0.67041 -4.69286,-2.28258 -1.5164,-1.62814 -1.5164,-4.22996 0,-2.98491 2.52201,-4.8844 2.52202,-1.91546 6.40081,-1.91546 2.50605,0 4.59708,0.47887 2.09104,0.47886 3.70321,1.18119 l 0,3.73513 -0.22347,0 q -1.35678,-1.14927 -3.57551,-1.89949 -2.20277,-0.76618 -4.51727,-0.76618 -2.53798,0 -4.0863,1.0535 -1.53236,1.0535 -1.53236,2.71356 0,1.48448 0.76618,2.33047 0.76618,0.84599 2.69759,1.29293 1.02158,0.22347 2.9051,0.54271 1.88353,0.31924 3.19242,0.65444 2.64971,0.70234 3.99053,2.12296 1.34082,1.42063 1.34082,3.97457 z"
         style="font-size:32.69038391px;fill:#5f0037;fill-opacity:1"
         id="path4194" />
      <path
         d="m 311.50479,322.95462 -8.49184,0 0,20.95824 -3.1605,0 0,-20.95824 -8.49184,0 0,-2.80933 20.14418,0 0,2.80933 z"
         style="font-size:32.69038391px;fill:#5f0037;fill-opacity:1"
         id="path4196" />
      <path
         d="m 333.46864,343.91286 -3.368,0 -2.33047,-6.62427 -10.27959,0 -2.33047,6.62427 -3.20838,0 8.65146,-23.76757 4.21399,0 8.65146,23.76757 z m -6.67216,-9.33783 -4.16611,-11.6683 -4.18207,11.6683 8.34818,0 z"
         style="font-size:32.69038391px;fill:#5f0037;fill-opacity:1"
         id="path4198" />
      <path
         d="m 356.74138,343.91286 -4.10226,0 -7.94913,-9.44956 -4.45342,0 0,9.44956 -3.1605,0 0,-23.76757 6.6562,0 q 2.15488,0 3.59147,0.28732 1.43659,0.27135 2.58586,0.98965 1.29293,0.81407 2.01123,2.05911 0.73425,1.22908 0.73425,3.12857 0,2.5699 -1.29293,4.30977 -1.29293,1.72391 -3.55955,2.60182 l 8.93878,10.39133 z m -7.39045,-17.07945 q 0,-1.02157 -0.36713,-1.80372 -0.35117,-0.7981 -1.1812,-1.34081 -0.68637,-0.4629 -1.62813,-0.63849 -0.94176,-0.19154 -2.21873,-0.19154 l -3.71917,0 0,8.9707 3.19242,0 q 1.50044,0 2.61778,-0.25539 1.11735,-0.27136 1.89949,-0.98965 0.7183,-0.67041 1.0535,-1.53237 0.35117,-0.87791 0.35117,-2.21873 z"
         style="font-size:32.69038391px;fill:#5f0037;fill-opacity:1"
         id="path4200" />
      <path
         d="m 376.75786,322.95462 -8.49184,0 0,20.95824 -3.1605,0 0,-20.95824 -8.49183,0 0,-2.80933 20.14417,0 0,2.80933 z"
         style="font-size:32.69038391px;fill:#5f0037;fill-opacity:1"
         id="path4202" />
    </g>
  </g>
</svg>
