<?xml version="1.0" encoding="UTF-8" standalone="no"?>
<svg width="189px" height="261px" viewBox="0 0 189 261" version="1.1" xmlns="http://www.w3.org/2000/svg" xmlns:xlink="http://www.w3.org/1999/xlink" xmlns:sketch="http://www.bohemiancoding.com/sketch/ns">
    <!-- Generator: Sketch 3.5.1 (25234) - http://www.bohemiancoding.com/sketch -->
    <title>drive</title>
    <desc>Created with Sketch.</desc>
    <defs></defs>
    <g id="Page-1" stroke="none" stroke-width="1" fill="none" fill-rule="evenodd" sketch:type="MSPage">
        <g id="drive" sketch:type="MSLayerGroup">
            <path d="M0,94.3297658 C0,112.525054 5.81184641,129.899782 13.9013617,144.177859 L75.3755174,250.575953 C79.2287582,257.523475 87,261 94.3297658,261 C101.657162,261 109.048529,257.523475 113.284014,250.575953 L174.75896,144.24262 C182.910076,129.962173 188.657162,112.904929 188.657162,94.3921569 C188.657162,42.2055828 146.51634,0 94.3297658,0 C42.1408224,0 0,42.1408224 0,94.3297658 Z" id="location-pin-copy" fill="#E70052" sketch:type="MSShapeGroup"></path>
            <path d="M129.484444,71.05 C128.473333,68.1 125.642222,66 122.305556,66 L66.6944444,66 C63.3577778,66 60.5772222,68.1 59.5155556,71.05 L49,101 L49,141 C49,143.75 51.275,146 54.0555556,146 L59.1111111,146 C61.8916667,146 64.1666667,143.75 64.1666667,141 L64.1666667,136 L124.833333,136 L124.833333,141 C124.833333,143.75 127.108333,146 129.888889,146 L134.944444,146 C137.725,146 140,143.75 140,141 L140,101 L129.484444,71.05 L129.484444,71.05 Z M66.6944444,121 C62.4983333,121 59.1111111,117.65 59.1111111,113.5 C59.1111111,109.35 62.4983333,106 66.6944444,106 C70.8905556,106 74.2777778,109.35 74.2777778,113.5 C74.2777778,117.65 70.8905556,121 66.6944444,121 L66.6944444,121 Z M122.305556,121 C118.109444,121 114.722222,117.65 114.722222,113.5 C114.722222,109.35 118.109444,106 122.305556,106 C126.501667,106 129.888889,109.35 129.888889,113.5 C129.888889,117.65 126.501667,121 122.305556,121 L122.305556,121 Z M59.1111111,96 L66.6944444,73.5 L122.305556,73.5 L129.888889,96 L59.1111111,96 L59.1111111,96 Z" id="Shape" fill="#FFFFFF" sketch:type="MSShapeGroup"></path>
        </g>
    </g>
</svg>