<?xml version="1.0" encoding="UTF-8" standalone="no"?>
<svg width="100px" height="100px" viewBox="0 0 100 100" version="1.1" xmlns="http://www.w3.org/2000/svg" xmlns:xlink="http://www.w3.org/1999/xlink" xmlns:sketch="http://www.bohemiancoding.com/sketch/ns">
    <!-- Generator: Sketch 3.5.1 (25234) - http://www.bohemiancoding.com/sketch -->
    <title>drive</title>
    <desc>Created with Sketch.</desc>
    <defs></defs>
    <g id="Page-1" stroke="none" stroke-width="1" fill="none" fill-rule="evenodd" sketch:type="MSPage">
        <g id="drive" sketch:type="MSLayerGroup" fill="#50AF47">
            <path d="M15.5,38.3333984 L84.3333984,38.3333984 C79.5,23.5 65.5,13.3333984 50,13.3333984 C34.5,13.3333984 20.5,23.5 15.5,38.3333984 L15.5,38.3333984 Z M86.6666016,41.6666016 L13.3333984,41.6666016 C12.8333984,41.6666016 12.3333984,41.5 12,41 C11.6666016,40.6666016 11.6666016,40 11.6666016,39.5 C16.5,22.1666016 32.1666016,10 50,10 C67.8333984,10 83.5,22.1666016 88.3333984,39.5 C88.5,40 88.3333984,40.5 88,41 C87.6666016,41.5 87.1666016,41.6666016 86.6666016,41.6666016 L86.6666016,41.6666016 Z M13.3333984,49.6666016 L13.3333984,50 C13.3333984,55.5 14.5,60.8333984 17,65.8333984 C20.1666016,64.5 22.1666016,61.5 22.1666016,58.1666016 C22.1666016,53.3333984 18.1666016,49.5 13.3333984,49.6666016 L13.3333984,49.6666016 Z M16.1666016,69.5 C15.5,69.5 15,69.1666016 14.6666016,68.6666016 C11.6666016,62.8333984 10,56.5 10,50 L10,48.6666016 L10,48 C10,47.1666016 10.6666016,46.6666016 11.3333984,46.5 C12,46.3333984 12.8333984,46.3333984 13.5,46.3333984 C20,46.3333984 25.1666016,51.6666016 25.1666016,58 C25.1666016,63.3333984 21.5,68 16.1666016,69.3333984 C16.5,69.5 16.3333984,69.5 16.1666016,69.5 L16.1666016,69.5 Z M86.3333984,51.6666016 C83.8333984,51.6666016 78,52.3333984 78,58 C78,61.5 80,64.5 83.1666016,65.6666016 C85.5,61 86.8333984,57.3333984 86.8333984,51.8333984 L86.8333984,51.5 C86.5,51.6666016 86.3333984,51.6666016 86.3333984,51.6666016 L86.3333984,51.6666016 Z M83.8333984,69.5 L83.5,69.5 C78.1666016,68.1666016 74.5,63.5 74.5,58.1666016 C74.5,52.1666016 79,48.5 86.1666016,48.5 C86.8333984,48.5 87.6666016,48.5 88.3333984,48.6666016 C89.1666016,48.8333984 89.6666016,49.5 89.6666016,50.1666016 L89.6666016,50.8333984 L89.6666016,52.1666016 C89.6666016,58.8333984 88,63 85,68.8333984 C85,69.1666016 84.5,69.5 83.8333984,69.5 L83.8333984,69.5 Z M30,80.6666016 C36,84.6666016 42.8333984,86.6666016 50,86.6666016 C57.1666016,86.6666016 64,84.6666016 70,80.6666016 C66.1666016,76.5 58.3333984,73.8333984 50,73.8333984 C41.6666016,73.8333984 34,76.5 30,80.6666016 L30,80.6666016 Z M50,90 C41.5,90 33.5,87.3333984 26.6666016,82.3333984 C26,81.8333984 25.8333984,80.8333984 26.3333984,80 C30.3333984,74.1666016 39.6666016,70.5 50.1666016,70.5 C60.5,70.5 69.8333984,74.1666016 73.8333984,80 C74.3333984,80.6666016 74.1666016,81.8333984 73.5,82.3333984 C66.5,87.3333984 58.3333984,90 50,90 L50,90 Z M50,3.33339844 C24.3333984,3.33339844 3.33339844,24.3333984 3.33339844,50 C3.33339844,75.6666016 24.3333984,96.6666016 50,96.6666016 C75.6666016,96.6666016 96.6666016,75.6666016 96.6666016,50 C96.6666016,24.3333984 75.6666016,3.33339844 50,3.33339844 L50,3.33339844 Z M50,100 C22.5,100 0,77.5 0,50 C0,22.5 22.5,0 50,0 C77.5,0 100,22.5 100,50 C100,77.5 77.5,100 50,100 L50,100 Z" id="Fill-1" sketch:type="MSShapeGroup"></path>
            <path d="M50,50 C41.8333984,50 36.6666016,53 36.6666016,55 C36.6666016,57 41.8333984,60 50,60 C58.1666016,60 63.3333984,57 63.3333984,55 C63.3333984,53 58.1666016,50 50,50 L50,50 Z M50,63.3333984 C40.5,63.3333984 33.3333984,59.8333984 33.3333984,55 C33.3333984,50.1666016 40.5,46.6666016 50,46.6666016 C59.5,46.6666016 66.6666016,50.1666016 66.6666016,55 C66.6666016,59.8333984 59.5,63.3333984 50,63.3333984 L50,63.3333984 Z" id="Fill-4" sketch:type="MSShapeGroup"></path>
        </g>
    </g>
</svg>