<?xml version="1.0" encoding="UTF-8" standalone="no"?>
<svg width="189px" height="261px" viewBox="0 0 189 261" version="1.1" xmlns="http://www.w3.org/2000/svg" xmlns:xlink="http://www.w3.org/1999/xlink" xmlns:sketch="http://www.bohemiancoding.com/sketch/ns">
    <!-- Generator: Sketch 3.5.1 (25234) - http://www.bohemiancoding.com/sketch -->
    <title>drive</title>
    <desc>Created with Sketch.</desc>
    <defs></defs>
    <g id="Page-1" stroke="none" stroke-width="1" fill="none" fill-rule="evenodd" sketch:type="MSPage">
        <g id="drive" sketch:type="MSLayerGroup">
            <path d="M0,94.3297658 C0,112.525054 5.81184641,129.899782 13.9013617,144.177859 L75.3755174,250.575953 C79.2287582,257.523475 87,261 94.3297658,261 C101.657162,261 109.048529,257.523475 113.284014,250.575953 L174.75896,144.24262 C182.910076,129.962173 188.657162,112.904929 188.657162,94.3921569 C188.657162,42.2055828 146.51634,0 94.3297658,0 C42.1408224,0 0,42.1408224 0,94.3297658 Z" id="location-pin-copy" fill="#E70052" sketch:type="MSShapeGroup"></path>
            <path d="M132.675556,53.42875 C131.586667,50.2575 128.537778,48 124.944444,48 L65.0555556,48 C61.4622222,48 58.4677778,50.2575 57.3244444,53.42875 L46,85.625 L46,128.625 C46,131.58125 48.45,134 51.4444444,134 L56.8888889,134 C59.8833333,134 62.3333333,131.58125 62.3333333,128.625 L62.3333333,123.25 L127.666667,123.25 L127.666667,128.625 C127.666667,131.58125 130.116667,134 133.111111,134 L138.555556,134 C141.55,134 144,131.58125 144,128.625 L144,85.625 L132.675556,53.42875 L132.675556,53.42875 Z M66.6944444,106 C62.4983333,106 59.1111111,102.65 59.1111111,98.5 C59.1111111,94.35 62.4983333,91 66.6944444,91 C70.8905556,91 74.2777778,94.35 74.2777778,98.5 C74.2777778,102.65 70.8905556,106 66.6944444,106 L66.6944444,106 Z M122.305556,106 C118.109444,106 114.722222,102.65 114.722222,98.5 C114.722222,94.35 118.109444,91 122.305556,91 C126.501667,91 129.888889,94.35 129.888889,98.5 C129.888889,102.65 126.501667,106 122.305556,106 L122.305556,106 Z M59.1111111,81 L66.6944444,58.5 L122.305556,58.5 L129.888889,81 L59.1111111,81 L59.1111111,81 Z" id="Shape" fill="#FFFFFF" sketch:type="MSShapeGroup"></path>
        </g>
    </g>
</svg>