<?xml version="1.0" encoding="UTF-8" standalone="no"?>
<svg width="189px" height="261px" viewBox="0 0 189 261" version="1.1" xmlns="http://www.w3.org/2000/svg" xmlns:xlink="http://www.w3.org/1999/xlink" xmlns:sketch="http://www.bohemiancoding.com/sketch/ns">
    <!-- Generator: Sketch 3.5.1 (25234) - http://www.bohemiancoding.com/sketch -->
    <title>drive</title>
    <desc>Created with Sketch.</desc>
    <defs></defs>
    <g id="Page-1" stroke="none" stroke-width="1" fill="none" fill-rule="evenodd" sketch:type="MSPage">
        <g id="drive" sketch:type="MSLayerGroup">
            <path d="M94.3297658,0 L94.3297658,0 C42.1408224,0 0,42.1408224 0,94.3297658 C0,112.525054 5.81184641,129.899782 13.9013617,144.177859 L75.3755174,250.575953 C79.2287582,257.523475 87,261 94.3297658,261 C101.657162,261 109.048529,257.523475 113.284014,250.575953 L174.75896,144.24262 C182.910076,129.962173 188.657162,112.904929 188.657162,94.3921569 C188.657162,42.2055828 146.51634,0 94.3297658,0 L94.3297658,0 Z" id="location-pin-copy" fill="#E70052" sketch:type="MSShapeGroup"></path>
            <path d="M59.5,90.3333984 L128.333398,90.3333984 C123.5,75.5 109.5,65.3333984 94,65.3333984 C78.5,65.3333984 64.5,75.5 59.5,90.3333984 L59.5,90.3333984 Z M130.666602,93.6666016 L57.3333984,93.6666016 C56.8333984,93.6666016 56.3333984,93.5 56,93 C55.6666016,92.6666016 55.6666016,92 55.6666016,91.5 C60.5,74.1666016 76.1666016,62 94,62 C111.833398,62 127.5,74.1666016 132.333398,91.5 C132.5,92 132.333398,92.5 132,93 C131.666602,93.5 131.166602,93.6666016 130.666602,93.6666016 L130.666602,93.6666016 Z M57.3333984,101.666602 L57.3333984,102 C57.3333984,107.5 58.5,112.833398 61,117.833398 C64.1666016,116.5 66.1666016,113.5 66.1666016,110.166602 C66.1666016,105.333398 62.1666016,101.5 57.3333984,101.666602 L57.3333984,101.666602 Z M60.1666016,121.5 C59.5,121.5 59,121.166602 58.6666016,120.666602 C55.6666016,114.833398 54,108.5 54,102 L54,100.666602 L54,100 C54,99.1666016 54.6666016,98.6666016 55.3333984,98.5 C56,98.3333984 56.8333984,98.3333984 57.5,98.3333984 C64,98.3333984 69.1666016,103.666602 69.1666016,110 C69.1666016,115.333398 65.5,120 60.1666016,121.333398 C60.5,121.5 60.3333984,121.5 60.1666016,121.5 L60.1666016,121.5 Z M130.333398,103.666602 C127.833398,103.666602 122,104.333398 122,110 C122,113.5 124,116.5 127.166602,117.666602 C129.5,113 130.833398,109.333398 130.833398,103.833398 L130.833398,103.5 C130.5,103.666602 130.333398,103.666602 130.333398,103.666602 L130.333398,103.666602 Z M127.833398,121.5 L127.5,121.5 C122.166602,120.166602 118.5,115.5 118.5,110.166602 C118.5,104.166602 123,100.5 130.166602,100.5 C130.833398,100.5 131.666602,100.5 132.333398,100.666602 C133.166602,100.833398 133.666602,101.5 133.666602,102.166602 L133.666602,102.833398 L133.666602,104.166602 C133.666602,110.833398 132,115 129,120.833398 C129,121.166602 128.5,121.5 127.833398,121.5 L127.833398,121.5 Z M74,132.666602 C80,136.666602 86.8333984,138.666602 94,138.666602 C101.166602,138.666602 108,136.666602 114,132.666602 C110.166602,128.5 102.333398,125.833398 94,125.833398 C85.6666016,125.833398 78,128.5 74,132.666602 L74,132.666602 Z M94,142 C85.5,142 77.5,139.333398 70.6666016,134.333398 C70,133.833398 69.8333984,132.833398 70.3333984,132 C74.3333984,126.166602 83.6666016,122.5 94.1666016,122.5 C104.5,122.5 113.833398,126.166602 117.833398,132 C118.333398,132.666602 118.166602,133.833398 117.5,134.333398 C110.5,139.333398 102.333398,142 94,142 L94,142 Z M94,55.3333984 C68.3333984,55.3333984 47.3333984,76.3333984 47.3333984,102 C47.3333984,127.666602 68.3333984,148.666602 94,148.666602 C119.666602,148.666602 140.666602,127.666602 140.666602,102 C140.666602,76.3333984 119.666602,55.3333984 94,55.3333984 L94,55.3333984 Z M94,152 C66.5,152 44,129.5 44,102 C44,74.5 66.5,52 94,52 C121.5,52 144,74.5 144,102 C144,129.5 121.5,152 94,152 L94,152 Z" id="Fill-1" fill="#FFFFFF" sketch:type="MSShapeGroup"></path>
            <path d="M94,102 C85.8333984,102 80.6666016,105 80.6666016,107 C80.6666016,109 85.8333984,112 94,112 C102.166602,112 107.333398,109 107.333398,107 C107.333398,105 102.166602,102 94,102 L94,102 Z M94,115.333398 C84.5,115.333398 77.3333984,111.833398 77.3333984,107 C77.3333984,102.166602 84.5,98.6666016 94,98.6666016 C103.5,98.6666016 110.666602,102.166602 110.666602,107 C110.666602,111.833398 103.5,115.333398 94,115.333398 L94,115.333398 Z" id="Fill-4" fill="#FFFFFF" sketch:type="MSShapeGroup"></path>
        </g>
    </g>
</svg>