<?xml version="1.0" encoding="UTF-8" standalone="no"?>
<svg width="226px" height="345px" viewBox="0 0 226 345" version="1.1" xmlns="http://www.w3.org/2000/svg" xmlns:xlink="http://www.w3.org/1999/xlink" xmlns:sketch="http://www.bohemiancoding.com/sketch/ns">
    <!-- Generator: Sketch 3.5.1 (25234) - http://www.bohemiancoding.com/sketch -->
    <title>location_marker</title>
    <desc>Created with Sketch.</desc>
    <defs></defs>
    <g id="Page-1" stroke="none" stroke-width="1" fill="none" fill-rule="evenodd" sketch:type="MSPage">
        <g id="location_marker" sketch:type="MSLayerGroup" fill="#0B9CDA">
            <path d="M208.535059,114.714956 C208.535059,146.306381 143.912359,172.07244 113.032036,172.07244 C82.1517131,172.07244 16.1205576,144.897929 16.1205576,113.306505 C16.1205576,81.7150902 82.1517131,60.174387 113.032036,60.174387 C143.912359,60.174387 208.535059,83.1235421 208.535059,114.714956 L208.535059,114.714956 Z M225.164836,114.714956 C225.164836,51.3080616 175.011684,2.84217094e-14 113.032036,2.84217094e-14 C51.0523777,2.84217094e-14 0.899235871,51.3080616 0.899235871,114.714956 C0.899235871,128.382172 2.43230484,142.497489 8.12654546,154.820389 L88.0649664,328.237134 C92.4451508,338.095458 102.519586,344.144869 113.032036,344.144869 C123.544486,344.144869 133.618911,338.095458 138.218108,328.237134 L217.937526,154.820389 C223.631767,142.497489 225.164836,128.382172 225.164836,114.714956 L225.164836,114.714956 Z" id="path3345-copy-2" sketch:type="MSShapeGroup"></path>
        </g>
    </g>
</svg>