<?xml version="1.0" encoding="UTF-8" standalone="no"?>
<svg width="225px" height="345px" viewBox="0 0 225 345" version="1.1" xmlns="http://www.w3.org/2000/svg" xmlns:xlink="http://www.w3.org/1999/xlink" xmlns:sketch="http://www.bohemiancoding.com/sketch/ns">
    <!-- Generator: Sketch 3.5.1 (25234) - http://www.bohemiancoding.com/sketch -->
    <title>start_marker</title>
    <desc>Created with Sketch.</desc>
    <defs></defs>
    <g id="Page-1" stroke="none" stroke-width="1" fill="none" fill-rule="evenodd" sketch:type="MSPage">
        <g id="start_marker" sketch:type="MSLayerGroup" fill="#50AF47">
            <path d="M207.635823,114.714956 C207.635823,146.306381 143.013123,172.07244 112.1328,172.07244 C81.2524773,172.07244 15.2213217,144.897929 15.2213217,113.306505 C15.2213217,81.7150902 81.2524773,60.174387 112.1328,60.174387 C143.013123,60.174387 207.635823,83.1235421 207.635823,114.714956 L207.635823,114.714956 Z M224.2656,114.714956 C224.2656,51.3080616 174.112448,2.84217094e-14 112.1328,2.84217094e-14 C50.1531418,2.84217094e-14 -2.84217094e-14,51.3080616 -2.84217094e-14,114.714956 C-2.84217094e-14,128.382172 1.53306897,142.497489 7.22730959,154.820389 L87.1657306,328.237134 C91.5459149,338.095458 101.62035,344.144869 112.1328,344.144869 C122.64525,344.144869 132.719675,338.095458 137.318872,328.237134 L217.038291,154.820389 C222.732531,142.497489 224.2656,128.382172 224.2656,114.714956 L224.2656,114.714956 Z" id="path3345" sketch:type="MSShapeGroup"></path>
            <path d="M65.6378653,115.265565 C66.7814543,115.850066 67.6264267,116.472678 68.1728081,117.133418 C68.7191895,117.794158 69.1575587,118.55654 69.4879288,119.420584 C69.6404074,119.852607 69.7801773,120.284623 69.9072427,120.716645 C70.0343081,121.148668 70.0978399,121.618803 70.0978399,122.127065 C70.0978399,123.118175 69.9898359,124.039386 69.7738247,124.890724 C69.5578134,125.742063 69.2592141,126.523503 68.8780178,127.23507 C68.4968215,127.946636 67.9885673,128.59466 67.3532402,129.179161 C66.717913,129.763662 66.0127104,130.265563 65.2376112,130.684879 C64.462512,131.104195 63.6493054,131.428207 62.797967,131.656925 C61.9466285,131.885643 61.101656,132 60.2630241,132 C59.7039362,132 59.1321503,131.949175 58.5476493,131.847522 C57.9631483,131.74587 57.3977156,131.6061 56.8513342,131.428208 C56.3049528,131.250317 55.7903455,131.047015 55.3074968,130.818297 C54.8246482,130.58958 54.3926321,130.348159 54.0114358,130.094028 C52.6899553,129.153744 51.6861534,127.908521 51,126.358323 L56.2986023,122.965693 C56.3494285,123.092758 56.4574325,123.277 56.6226175,123.518424 C56.7878026,123.759849 57.0101638,124.001269 57.2897078,124.242694 C57.5692517,124.484118 57.8996169,124.700126 58.2808132,124.890724 C58.6620095,125.081322 59.1067319,125.17662 59.6149936,125.17662 C60.2503208,125.17662 60.7776345,124.928846 61.1969504,124.433291 C61.6162664,123.937736 61.8259212,123.397716 61.8259212,122.813215 C61.8259212,121.669626 60.8983574,120.792887 59.043202,120.182973 C58.0775047,119.852603 57.2007663,119.439647 56.4129606,118.944091 C55.6251549,118.448536 54.9135991,117.883104 54.2782719,117.247776 C53.9224887,116.891993 53.5921235,116.536215 53.2871665,116.180432 C52.9822094,115.824649 52.715376,115.437105 52.4866582,115.017789 C52.2579404,114.598473 52.0736983,114.115632 51.9339263,113.56925 C51.7941543,113.022869 51.7242694,112.368492 51.7242694,111.606099 C51.7242694,110.996185 51.781448,110.354514 51.8958069,109.681067 C52.0101658,109.007621 52.2198206,108.340537 52.5247776,107.679797 C52.8297347,107.019056 53.236338,106.371032 53.7445997,105.735705 C54.2528615,105.100378 54.9008855,104.503179 55.6886912,103.944091 C56.4510839,103.410417 57.3214691,102.952988 58.2998729,102.571792 C59.2782768,102.190595 60.5171463,102 62.0165184,102 C63.3888252,102 64.5895755,102.228714 65.6188056,102.68615 C66.6480356,103.143586 67.4548891,103.626427 68.0393901,104.134689 L69.4879288,105.697586 L65.0660737,109.928844 C64.9898344,109.776365 64.8437114,109.630242 64.6277001,109.49047 C64.4116889,109.350698 64.1702682,109.217281 63.9034307,109.090216 C63.6365933,108.963151 63.3634067,108.8615 63.0838628,108.78526 C62.8043188,108.709021 62.5374854,108.670902 62.2833545,108.670902 C61.4701357,108.670902 60.8538776,108.88691 60.4345616,109.318933 C60.0152457,109.750955 59.8055909,110.246503 59.8055909,110.805591 C59.8055909,111.669636 60.2503132,112.393898 61.1397713,112.978399 C61.3684891,113.130878 61.6480288,113.264294 61.978399,113.378653 C62.3087691,113.493012 62.6518407,113.651841 63.0076239,113.855146 C63.3634071,114.058451 63.7636572,114.274459 64.2083863,114.503177 C64.6531153,114.731894 65.1296036,114.986021 65.6378653,115.265565 L65.6378653,115.265565 Z M95.2757306,112.063532 L89.4815756,112.063532 L89.4815756,130.437103 L81.6670902,130.437103 L81.6670902,112.063532 L74.9580686,112.063532 L74.9580686,102.952986 L95.2757306,102.952986 L95.2757306,112.063532 Z M114.583227,125.21474 L106.273189,125.21474 L104.634053,130.475222 L96.7052097,130.360864 L105.54892,103.524778 L116.108005,103.524778 L123.998729,130.208386 L116.031766,130.284625 L114.583227,125.21474 Z M150.701398,129.636595 L142.886912,130.780178 L139.189327,123.270648 C138.833543,123.346887 138.465059,123.410419 138.083863,123.461245 C137.702666,123.512071 137.30877,123.537484 136.90216,123.537484 L136.90216,130.322745 L128.820839,130.322745 L128.820839,102.457433 L136.864041,102.457433 C138.312587,102.457433 139.672166,102.736973 140.942821,103.296061 C142.213475,103.855149 143.325281,104.611177 144.278272,105.564168 C145.231263,106.517159 145.987291,107.628964 146.546379,108.899619 C147.105467,110.170273 147.385006,111.529853 147.385006,112.978399 C147.385006,114.172814 147.200764,115.297326 146.832274,116.35197 C146.463785,117.406613 145.949177,118.378649 145.288437,119.268107 L150.701398,129.636595 Z M172.601017,112.063532 L166.806861,112.063532 L166.806861,130.437103 L158.992376,130.437103 L158.992376,112.063532 L152.283355,112.063532 L152.283355,102.952986 L172.601017,102.952986 L172.601017,112.063532 Z" id="START-Copy" sketch:type="MSShapeGroup"></path>
        </g>
    </g>
</svg>