<?xml version="1.0" encoding="UTF-8" standalone="no"?>
<svg width="189px" height="261px" viewBox="0 0 189 261" version="1.1" xmlns="http://www.w3.org/2000/svg" xmlns:xlink="http://www.w3.org/1999/xlink" xmlns:sketch="http://www.bohemiancoding.com/sketch/ns">
    <!-- Generator: Sketch 3.5.1 (25234) - http://www.bohemiancoding.com/sketch -->
    <title>walk</title>
    <desc>Created with Sketch.</desc>
    <defs></defs>
    <g id="Page-1" stroke="none" stroke-width="1" fill="none" fill-rule="evenodd" sketch:type="MSPage">
        <g id="walk" sketch:type="MSLayerGroup">
            <path d="M94.3297658,0 L94.3297658,0 C42.1408224,0 0,42.1408224 0,94.3297658 C0,112.525054 5.81184641,129.899782 13.9013617,144.177859 L75.3755174,250.575953 C79.2287582,257.523475 87,261 94.3297658,261 C101.657162,261 109.048529,257.523475 113.284014,250.575953 L174.75896,144.24262 C182.910076,129.962173 188.657162,112.904929 188.657162,94.3921569 C188.657162,42.2055828 146.51634,0 94.3297658,0 L94.3297658,0 Z" id="location-pin" fill="#50AF47" sketch:type="MSShapeGroup"></path>
            <path d="M100.203807,70.743083 C105.957653,70.743083 110.665345,66.0758893 110.665345,60.3715415 C110.665345,54.6671937 105.957653,50 100.203807,50 C94.4499603,50 89.742268,54.6671937 89.742268,60.3715415 C89.742268,66.0758893 94.4499603,70.743083 100.203807,70.743083 L100.203807,70.743083 Z" id="Path" fill="#FFFFFF" sketch:type="MSShapeGroup"></path>
            <path d="M80.8769231,88.6909091 L66.2307692,161.810277 L77.2153846,161.810277 L86.6307692,120.324111 L97.6153846,130.695652 L97.6153846,161.810277 L108.076923,161.810277 L108.076923,122.916996 L97.0923077,112.545455 L100.230769,96.9881423 C107.030769,104.766798 117.492308,109.952569 129,109.952569 L129,99.5810277 C119.061538,99.5810277 110.692308,94.3952569 106.507692,87.1351779 L101.276923,78.8379447 C99.1846154,75.7264822 96.0461538,73.6521739 92.3846154,73.6521739 C90.8153846,73.6521739 89.7692308,74.170751 88.2,74.170751 L61,85.5794466 L61,109.952569 L71.4615385,109.952569 L71.4615385,92.3209486 L80.8769231,88.6909091 L80.8769231,88.6909091 Z" id="Path" fill="#FFFFFF" sketch:type="MSShapeGroup"></path>
        </g>
    </g>
</svg>