<?xml version="1.0" encoding="UTF-8" standalone="no"?>
<svg width="189px" height="261px" viewBox="0 0 189 261" version="1.1" xmlns="http://www.w3.org/2000/svg" xmlns:xlink="http://www.w3.org/1999/xlink" xmlns:sketch="http://www.bohemiancoding.com/sketch/ns">
    <!-- Generator: Sketch 3.5.1 (25234) - http://www.bohemiancoding.com/sketch -->
    <title>walk</title>
    <desc>Created with Sketch.</desc>
    <defs></defs>
    <g id="Page-1" stroke="none" stroke-width="1" fill="none" fill-rule="evenodd" sketch:type="MSPage">
        <g id="walk" sketch:type="MSLayerGroup">
            <path d="M94.3297658,0 L94.3297658,0 C42.1408224,0 0,42.1408224 0,94.3297658 C0,112.525054 5.81184641,129.899782 13.9013617,144.177859 L75.3755174,250.575953 C79.2287582,257.523475 87,261 94.3297658,261 C101.657162,261 109.048529,257.523475 113.284014,250.575953 L174.75896,144.24262 C182.910076,129.962173 188.657162,112.904929 188.657162,94.3921569 C188.657162,42.2055828 146.51634,0 94.3297658,0 L94.3297658,0 Z" id="location-pin" fill="#50AF47" sketch:type="MSShapeGroup"></path>
            <path d="M93.8333984,78.6666016 C100.333398,78.6666016 107,79.3333984 113.666602,80.5 C115.333398,80.8333984 117.166602,80.3333984 118.5,79.1666016 C119.833398,78 120.666602,76.3333984 120.666602,74.6666016 C120.666602,64 112,55.3333984 101.333398,55.3333984 L86.5,55.3333984 C76,55.3333984 67.3333984,64 67.3333984,74.6666016 C67.3333984,76.5 68.1666016,78.1666016 69.5,79.1666016 C70.8333984,80.3333984 72.6666016,80.8333984 74.3333984,80.5 C80.6666016,79.3333984 87.3333984,78.6666016 93.8333984,78.6666016 L93.8333984,78.6666016 Z M114.666602,83.8333984 C114.166602,83.8333984 113.666602,83.8333984 113,83.6666016 C100.166602,81.3333984 87.3333984,81.3333984 74.8333984,83.6666016 C72.1666016,84.1666016 69.3333984,83.3333984 67.1666016,81.6666016 C65,79.8333984 63.8333984,77.3333984 63.8333984,74.5 C64,62.1666016 74.1666016,52 86.6666016,52 L101.5,52 C113.833398,52 124,62.1666016 124,74.6666016 C124,77.3333984 122.833398,80 120.666602,81.8333984 C119,83.1666016 116.833398,83.8333984 114.666602,83.8333984 L114.666602,83.8333984 Z" id="Fill-1" fill="#FFFFFF" sketch:type="MSShapeGroup"></path>
            <path d="M113.666602,80.5 C115.333398,80.8333984 117,80.3333984 118.333398,79.3333984 C119.166602,78.6666016 120,77.6666016 120.333398,76.6666016 L113.166602,75.3333984 C100.333398,73 87.5,73 75,75.3333984 L67.8333984,76.6666016 C68.1666016,77.6666016 68.8333984,78.6666016 69.8333984,79.3333984 C71.1666016,80.3333984 72.8333984,80.6666016 74.5,80.5 C87.1666016,78 100.5,78 113.666602,80.5 L113.666602,80.5 Z M114.833398,83.8333984 C114.333398,83.8333984 113.666602,83.8333984 113.166602,83.6666016 C100.333398,81.3333984 87.5,81.3333984 75,83.6666016 C72.3333984,84.1666016 69.8333984,83.5 67.8333984,82 C65.8333984,80.5 64.5,78 64.1666016,75.5 C64.1666016,74.6666016 64.6666016,73.8333984 65.5,73.6666016 L74.3333984,72.1666016 C87.1666016,69.8333984 100.5,69.8333984 113.666602,72.1666016 L122.5,73.6666016 C123.333398,73.8333984 124,74.6666016 123.833398,75.5 C123.666602,78 122.333398,80.5 120.166602,82 C118.666602,83.1666016 116.833398,83.8333984 114.833398,83.8333984 L114.833398,83.8333984 Z" id="Fill-2" fill="#FFFFFF" sketch:type="MSShapeGroup"></path>
            <path d="M70.6666016,83.5 L70.6666016,90.3333984 C70.6666016,106.5 83,118.666602 94,118.666602 C105,118.666602 117.333398,106.5 117.333398,90.3333984 L117.333398,83.5 C116,83.8333984 114.5,84 113.166602,83.6666016 C100.333398,81.3333984 87.5,81.3333984 75,83.6666016 C73.5,84 72,83.8333984 70.6666016,83.5 L70.6666016,83.5 Z M94,122 C78.6666016,122 67.3333984,105.333398 67.3333984,90.3333984 L67.3333984,80.8333984 C67.3333984,80.1666016 67.6666016,79.6666016 68.1666016,79.3333984 C68.6666016,79 69.3333984,79 69.8333984,79.5 C71.1666016,80.3333984 72.6666016,80.6666016 74.1666016,80.5 C87,78.1666016 100.333398,78.1666016 113.5,80.5 C115,80.8333984 116.5,80.5 117.833398,79.5 C118.333398,79.1666016 119,79.1666016 119.5,79.3333984 C120,79.6666016 120.333398,80.1666016 120.333398,80.8333984 L120.333398,90.3333984 C120.666602,105.333398 109.333398,122 94,122 L94,122 Z" id="Fill-3" fill="#FFFFFF" sketch:type="MSShapeGroup"></path>
            <path d="M64,148.666602 L124,148.666602 L124,147 C124,144.166602 121.833398,142 119,142 L69,142 C66.1666016,142 64,144.166602 64,147 L64,148.666602 L64,148.666602 Z M125.666602,152 L62.3333984,152 C61.3333984,152 60.6666016,151.333398 60.6666016,150.333398 L60.6666016,147 C60.6666016,142.333398 64.3333984,138.666602 69,138.666602 L119,138.666602 C123.666602,138.666602 127.333398,142.333398 127.333398,147 L127.333398,150.333398 C127.333398,151.333398 126.666602,152 125.666602,152 L125.666602,152 Z" id="Fill-4" fill="#FFFFFF" sketch:type="MSShapeGroup"></path>
            <path d="M47.3333984,148.666602 L140.666602,148.666602 L140.666602,140.333398 C140.666602,138.166602 139.5,136.166602 137.5,135 C137.166602,134.833398 136.666602,134.666602 136.333398,134.333398 C127.833398,130.166602 118.333398,127 108.166602,125.333398 C106.166602,131.333398 100.5,135.333398 94,135.333398 C87.5,135.333398 82,131.333398 79.8333984,125.333398 C69.6666016,127 60.1666016,130.166602 51.6666016,134.5 L50.5,135.166602 C48.5,136.166602 47.3333984,138.166602 47.3333984,140.333398 L47.3333984,148.666602 L47.3333984,148.666602 Z M142.333398,152 L45.6666016,152 C44.6666016,152 44,151.333398 44,150.333398 L44,140.333398 C44,136.833398 45.8333984,133.666602 49,132.166602 L50.1666016,131.5 C59.3333984,126.833398 69.5,123.666602 80.3333984,121.833398 L80.6666016,121.833398 C81.5,121.666602 82.5,122.166602 82.6666016,123.166602 C83.8333984,128.5 88.5,132.166602 94,132.166602 C99.5,132.166602 104.166602,128.5 105.333398,123.166602 C105.5,122.666602 105.666602,122.333398 106.166602,122.166602 C106.5,122 107,121.833398 107.5,122 L107.666602,122 C118.5,123.833398 128.666602,127 137.833398,131.666602 C138.166602,131.833398 138.666602,132.166602 139,132.333398 C142,134 144,137.166602 144,140.5 L144,150.5 C144,151.333398 143.333398,152 142.333398,152 L142.333398,152 Z" id="Fill-6" fill="#FFFFFF" sketch:type="MSShapeGroup"></path>
            <path d="M82.3333984,118.5 L82.3333984,120.333398 C82.3333984,126.833398 87.5,132 94,132 C100.5,132 105.666602,126.833398 105.666602,120.333398 L105.666602,118.5 C98.3333984,123.166602 89.6666016,123.166602 82.3333984,118.5 L82.3333984,118.5 Z M94,135.333398 C85.6666016,135.333398 79,128.666602 79,120.333398 L79,115.166602 C79,114.5 79.3333984,114 80,113.666602 C80.5,113.333398 81.3333984,113.5 81.8333984,113.833398 C85.5,117 89.8333984,118.666602 94,118.666602 C98.1666016,118.666602 102.5,117 106.333398,114 C106.833398,113.666602 107.5,113.5 108.166602,113.833398 C108.666602,114.166602 109.166602,114.666602 109.166602,115.333398 L109.166602,120.333398 C109,128.666602 102.333398,135.333398 94,135.333398 L94,135.333398 Z" id="Fill-8" fill="#FFFFFF" sketch:type="MSShapeGroup"></path>
            <path d="M87.3333984,63.6666016 L100.666602,63.6666016 L100.666602,60.3332031 L87.3333984,60.3332031 L87.3333984,63.6666016 Z M102.333398,67 L85.6666016,67 C84.6666016,67 84,66.3333984 84,65.3333984 L84,58.6666016 C84,57.6666016 84.6666016,57 85.6666016,57 L102.333398,57 C103.333398,57 104,57.6666016 104,58.6666016 L104,65.3333984 C104,66.3333984 103.333398,67 102.333398,67 L102.333398,67 Z" id="Fill-9" fill="#FFFFFF" sketch:type="MSShapeGroup"></path>
            <path d="M77.3333984,145.333398 C77.3333984,146.333398 76.6666016,147 75.6666016,147 C74.6666016,147 74,146.333398 74,145.333398 C74,144.333398 74.6666016,143.666602 75.6666016,143.666602 C76.6666016,143.666602 77.3333984,144.333398 77.3333984,145.333398" id="Fill-10" fill="#FFFFFF" sketch:type="MSShapeGroup"></path>
            <path d="M114,145.333398 C114,146.333398 113.333398,147 112.333398,147 C111.333398,147 110.666602,146.333398 110.666602,145.333398 C110.666602,144.333398 111.333398,143.666602 112.333398,143.666602 C113.333398,143.666602 114,144.333398 114,145.333398" id="Fill-11" fill="#FFFFFF" sketch:type="MSShapeGroup"></path>
            <path d="M110.166602,138.666602 L116.666602,138.666602 L124.833398,129.5 C122.166602,128.666602 119.5,127.833398 116.666602,127 L110.166602,138.666602 L110.166602,138.666602 Z M117.333398,142 L107.333398,142 C106.666602,142 106.166602,141.666602 105.833398,141.166602 C105.5,140.666602 105.5,140 105.833398,139.5 L114.166602,124.333398 C114.5,123.666602 115.333398,123.333398 116,123.5 C120.166602,124.5 124.333398,125.833398 128.166602,127.166602 C128.666602,127.333398 129,127.833398 129.166602,128.333398 C129.333398,128.833398 129.166602,129.5 128.833398,129.833398 L118.5,141.333398 C118.333398,141.833398 117.833398,142 117.333398,142 L117.333398,142 Z" id="Fill-12" fill="#FFFFFF" sketch:type="MSShapeGroup"></path>
            <path d="M71.3333984,138.666602 L77.8333984,138.666602 L71.5,127 C68.6666016,127.666602 66,128.5 63.3333984,129.5 L71.3333984,138.666602 L71.3333984,138.666602 Z M80.6666016,142 L70.6666016,142 C70.1666016,142 69.6666016,141.833398 69.5,141.5 L59.1666016,130 C58.8333984,129.666602 58.6666016,129 58.8333984,128.5 C59,128 59.3333984,127.5 59.8333984,127.333398 C63.6666016,125.833398 67.8333984,124.666602 72,123.666602 C72.6666016,123.5 73.5,123.833398 73.8333984,124.5 L82.1666016,139.666602 C82.5,140.166602 82.5,140.833398 82.1666016,141.333398 C81.8333984,141.833398 81.3333984,142 80.6666016,142 L80.6666016,142 Z" id="Fill-13" fill="#FFFFFF" sketch:type="MSShapeGroup"></path>
        </g>
    </g>
</svg>