<?xml version="1.0" encoding="UTF-8" standalone="no"?>
<svg width="100px" height="100px" viewBox="0 0 100 100" version="1.1" xmlns="http://www.w3.org/2000/svg" xmlns:xlink="http://www.w3.org/1999/xlink" xmlns:sketch="http://www.bohemiancoding.com/sketch/ns">
    <!-- Generator: Sketch 3.5.1 (25234) - http://www.bohemiancoding.com/sketch -->
    <title>walk</title>
    <desc>Created with Sketch.</desc>
    <defs></defs>
    <g id="Page-1" stroke="none" stroke-width="1" fill="none" fill-rule="evenodd" sketch:type="MSPage">
        <g id="walk" sketch:type="MSLayerGroup" fill="#50AF47">
            <path d="M49.8333984,26.6666016 C56.3333984,26.6666016 63,27.3333984 69.6666016,28.5 C71.3333984,28.8333984 73.1666016,28.3333984 74.5,27.1666016 C75.8333984,26 76.6666016,24.3333984 76.6666016,22.6666016 C76.6666016,12 68,3.33339844 57.3333984,3.33339844 L42.5,3.33339844 C32,3.33339844 23.3333984,12 23.3333984,22.6666016 C23.3333984,24.5 24.1666016,26.1666016 25.5,27.1666016 C26.8333984,28.3333984 28.6666016,28.8333984 30.3333984,28.5 C36.6666016,27.3333984 43.3333984,26.6666016 49.8333984,26.6666016 L49.8333984,26.6666016 Z M70.6666016,31.8333984 C70.1666016,31.8333984 69.6666016,31.8333984 69,31.6666016 C56.1666016,29.3333984 43.3333984,29.3333984 30.8333984,31.6666016 C28.1666016,32.1666016 25.3333984,31.3333984 23.1666016,29.6666016 C21,27.8333984 19.8333984,25.3333984 19.8333984,22.5 C20,10.1666016 30.1666016,0 42.6666016,0 L57.5,0 C69.8333984,0 80,10.1666016 80,22.6666016 C80,25.3333984 78.8333984,28 76.6666016,29.8333984 C75,31.1666016 72.8333984,31.8333984 70.6666016,31.8333984 L70.6666016,31.8333984 Z" id="Fill-1" sketch:type="MSShapeGroup"></path>
            <path d="M69.6666016,28.5 C71.3333984,28.8333984 73,28.3333984 74.3333984,27.3333984 C75.1666016,26.6666016 76,25.6666016 76.3333984,24.6666016 L69.1666016,23.3333984 C56.3333984,21 43.5,21 31,23.3333984 L23.8333984,24.6666016 C24.1666016,25.6666016 24.8333984,26.6666016 25.8333984,27.3333984 C27.1666016,28.3333984 28.8333984,28.6666016 30.5,28.5 C43.1666016,26 56.5,26 69.6666016,28.5 L69.6666016,28.5 Z M70.8333984,31.8333984 C70.3333984,31.8333984 69.6666016,31.8333984 69.1666016,31.6666016 C56.3333984,29.3333984 43.5,29.3333984 31,31.6666016 C28.3333984,32.1666016 25.8333984,31.5 23.8333984,30 C21.8333984,28.5 20.5,26 20.1666016,23.5 C20.1666016,22.6666016 20.6666016,21.8333984 21.5,21.6666016 L30.3333984,20.1666016 C43.1666016,17.8333984 56.5,17.8333984 69.6666016,20.1666016 L78.5,21.6666016 C79.3333984,21.8333984 80,22.6666016 79.8333984,23.5 C79.6666016,26 78.3333984,28.5 76.1666016,30 C74.6666016,31.1666016 72.8333984,31.8333984 70.8333984,31.8333984 L70.8333984,31.8333984 Z" id="Fill-2" sketch:type="MSShapeGroup"></path>
            <path d="M26.6666016,31.5 L26.6666016,38.3333984 C26.6666016,54.5 39,66.6666016 50,66.6666016 C61,66.6666016 73.3333984,54.5 73.3333984,38.3333984 L73.3333984,31.5 C72,31.8333984 70.5,32 69.1666016,31.6666016 C56.3333984,29.3333984 43.5,29.3333984 31,31.6666016 C29.5,32 28,31.8333984 26.6666016,31.5 L26.6666016,31.5 Z M50,70 C34.6666016,70 23.3333984,53.3333984 23.3333984,38.3333984 L23.3333984,28.8333984 C23.3333984,28.1666016 23.6666016,27.6666016 24.1666016,27.3333984 C24.6666016,27 25.3333984,27 25.8333984,27.5 C27.1666016,28.3333984 28.6666016,28.6666016 30.1666016,28.5 C43,26.1666016 56.3333984,26.1666016 69.5,28.5 C71,28.8333984 72.5,28.5 73.8333984,27.5 C74.3333984,27.1666016 75,27.1666016 75.5,27.3333984 C76,27.6666016 76.3333984,28.1666016 76.3333984,28.8333984 L76.3333984,38.3333984 C76.6666016,53.3333984 65.3333984,70 50,70 L50,70 Z" id="Fill-3" sketch:type="MSShapeGroup"></path>
            <path d="M20,96.6666016 L80,96.6666016 L80,95 C80,92.1666016 77.8333984,90 75,90 L25,90 C22.1666016,90 20,92.1666016 20,95 L20,96.6666016 L20,96.6666016 Z M81.6666016,100 L18.3333984,100 C17.3333984,100 16.6666016,99.3333984 16.6666016,98.3333984 L16.6666016,95 C16.6666016,90.3333984 20.3333984,86.6666016 25,86.6666016 L75,86.6666016 C79.6666016,86.6666016 83.3333984,90.3333984 83.3333984,95 L83.3333984,98.3333984 C83.3333984,99.3333984 82.6666016,100 81.6666016,100 L81.6666016,100 Z" id="Fill-4" sketch:type="MSShapeGroup"></path>
            <path d="M3.33339844,96.6666016 L96.6666016,96.6666016 L96.6666016,88.3333984 C96.6666016,86.1666016 95.5,84.1666016 93.5,83 C93.1666016,82.8333984 92.6666016,82.6666016 92.3333984,82.3333984 C83.8333984,78.1666016 74.3333984,75 64.1666016,73.3333984 C62.1666016,79.3333984 56.5,83.3333984 50,83.3333984 C43.5,83.3333984 38,79.3333984 35.8333984,73.3333984 C25.6666016,75 16.1666016,78.1666016 7.66660156,82.5 L6.5,83.1666016 C4.5,84.1666016 3.33339844,86.1666016 3.33339844,88.3333984 L3.33339844,96.6666016 L3.33339844,96.6666016 Z M98.3333984,100 L1.66660156,100 C0.666601563,100 0,99.3333984 0,98.3333984 L0,88.3333984 C0,84.8333984 1.83339844,81.6666016 5,80.1666016 L6.16660156,79.5 C15.3333984,74.8333984 25.5,71.6666016 36.3333984,69.8333984 L36.6666016,69.8333984 C37.5,69.6666016 38.5,70.1666016 38.6666016,71.1666016 C39.8333984,76.5 44.5,80.1666016 50,80.1666016 C55.5,80.1666016 60.1666016,76.5 61.3333984,71.1666016 C61.5,70.6666016 61.6666016,70.3333984 62.1666016,70.1666016 C62.5,70 63,69.8333984 63.5,70 L63.6666016,70 C74.5,71.8333984 84.6666016,75 93.8333984,79.6666016 C94.1666016,79.8333984 94.6666016,80.1666016 95,80.3333984 C98,82 100,85.1666016 100,88.5 L100,98.5 C100,99.3333984 99.3333984,100 98.3333984,100 L98.3333984,100 Z" id="Fill-6" sketch:type="MSShapeGroup"></path>
            <path d="M38.3333984,66.5 L38.3333984,68.3333984 C38.3333984,74.8333984 43.5,80 50,80 C56.5,80 61.6666016,74.8333984 61.6666016,68.3333984 L61.6666016,66.5 C54.3333984,71.1666016 45.6666016,71.1666016 38.3333984,66.5 L38.3333984,66.5 Z M50,83.3333984 C41.6666016,83.3333984 35,76.6666016 35,68.3333984 L35,63.1666016 C35,62.5 35.3333984,62 36,61.6666016 C36.5,61.3333984 37.3333984,61.5 37.8333984,61.8333984 C41.5,65 45.8333984,66.6666016 50,66.6666016 C54.1666016,66.6666016 58.5,65 62.3333984,62 C62.8333984,61.6666016 63.5,61.5 64.1666016,61.8333984 C64.6666016,62.1666016 65.1666016,62.6666016 65.1666016,63.3333984 L65.1666016,68.3333984 C65,76.6666016 58.3333984,83.3333984 50,83.3333984 L50,83.3333984 Z" id="Fill-8" sketch:type="MSShapeGroup"></path>
            <path d="M43.3333984,11.6666016 L56.6666016,11.6666016 L56.6666016,8.33320312 L43.3333984,8.33320312 L43.3333984,11.6666016 Z M58.3333984,15 L41.6666016,15 C40.6666016,15 40,14.3333984 40,13.3333984 L40,6.66660156 C40,5.66660156 40.6666016,5 41.6666016,5 L58.3333984,5 C59.3333984,5 60,5.66660156 60,6.66660156 L60,13.3333984 C60,14.3333984 59.3333984,15 58.3333984,15 L58.3333984,15 Z" id="Fill-9" sketch:type="MSShapeGroup"></path>
            <path d="M33.3333984,93.3333984 C33.3333984,94.3333984 32.6666016,95 31.6666016,95 C30.6666016,95 30,94.3333984 30,93.3333984 C30,92.3333984 30.6666016,91.6666016 31.6666016,91.6666016 C32.6666016,91.6666016 33.3333984,92.3333984 33.3333984,93.3333984" id="Fill-10" sketch:type="MSShapeGroup"></path>
            <path d="M70,93.3333984 C70,94.3333984 69.3333984,95 68.3333984,95 C67.3333984,95 66.6666016,94.3333984 66.6666016,93.3333984 C66.6666016,92.3333984 67.3333984,91.6666016 68.3333984,91.6666016 C69.3333984,91.6666016 70,92.3333984 70,93.3333984" id="Fill-11" sketch:type="MSShapeGroup"></path>
            <path d="M66.1666016,86.6666016 L72.6666016,86.6666016 L80.8333984,77.5 C78.1666016,76.6666016 75.5,75.8333984 72.6666016,75 L66.1666016,86.6666016 L66.1666016,86.6666016 Z M73.3333984,90 L63.3333984,90 C62.6666016,90 62.1666016,89.6666016 61.8333984,89.1666016 C61.5,88.6666016 61.5,88 61.8333984,87.5 L70.1666016,72.3333984 C70.5,71.6666016 71.3333984,71.3333984 72,71.5 C76.1666016,72.5 80.3333984,73.8333984 84.1666016,75.1666016 C84.6666016,75.3333984 85,75.8333984 85.1666016,76.3333984 C85.3333984,76.8333984 85.1666016,77.5 84.8333984,77.8333984 L74.5,89.3333984 C74.3333984,89.8333984 73.8333984,90 73.3333984,90 L73.3333984,90 Z" id="Fill-12" sketch:type="MSShapeGroup"></path>
            <path d="M27.3333984,86.6666016 L33.8333984,86.6666016 L27.5,75 C24.6666016,75.6666016 22,76.5 19.3333984,77.5 L27.3333984,86.6666016 L27.3333984,86.6666016 Z M36.6666016,90 L26.6666016,90 C26.1666016,90 25.6666016,89.8333984 25.5,89.5 L15.1666016,78 C14.8333984,77.6666016 14.6666016,77 14.8333984,76.5 C15,76 15.3333984,75.5 15.8333984,75.3333984 C19.6666016,73.8333984 23.8333984,72.6666016 28,71.6666016 C28.6666016,71.5 29.5,71.8333984 29.8333984,72.5 L38.1666016,87.6666016 C38.5,88.1666016 38.5,88.8333984 38.1666016,89.3333984 C37.8333984,89.8333984 37.3333984,90 36.6666016,90 L36.6666016,90 Z" id="Fill-13" sketch:type="MSShapeGroup"></path>
        </g>
    </g>
</svg>